<svg xmlns="http://www.w3.org/2000/svg" version="1.1"><polyline points="413.5,39.0,398.0,47.5" stroke="black" stroke-width="2" fill="none"/>
<polyline points="404.0,47.0,412.0,46.0,420.0,45.5,428.0,45.0" stroke="black" stroke-width="2" fill="none"/>
<polyline points="437.5,48.0,429.0,48.5,421.0,49.5,413.0,50.5,404.5,51.5,396.0,52.0,387.5,53.0,379.5,53.5,371.0,54.5" stroke="black" stroke-width="2" fill="none"/>
<polyline points="371.0,58.0,363.5,66.0,355.0,74.0,347.5,81.5,339.5,89.0,332.0,96.5,324.0,104.0,316.0,111.5,308.0,118.5" stroke="black" stroke-width="2" fill="none"/>
<polyline points="307.5,118.5,315.0,118.0,323.5,117.0,332.0,116.5,340.0,116.0,348.0,115.5,356.5,115.0,365.0,114.0,373.0,113.5,380.0,113.5,388.0,113.5,396.0,113.0,404.5,112.5,413.0,111.5,421.5,110.5,430.0,109.5,438.0,109.5,445.0,109.5,452.5,109.5,460.0,109.5,468.0,109.5,476.0,109.0" stroke="black" stroke-width="2" fill="none"/>
<polyline points="478.0,115.5,470.0,116.0,461.5,116.0,453.0,116.0,445.0,116.5,437.0,117.0,429.0,117.5,421.0,117.5,412.0,118.5,404.0,119.0,396.0,119.5,388.5,119.5,380.0,120.5,372.0,121.0,363.5,121.0,355.5,121.0,347.5,121.5,339.0,122.5,331.5,124.0,323.5,125.0,316.0,125.5,308.0,126.0" stroke="black" stroke-width="2" fill="none"/>
<polyline points="307.5,126.5,315.0,120.0,323.0,113.0,330.5,105.5,338.5,97.5,347.0,90.0,355.5,82.5,364.0,74.5,372.5,67.0,380.5,59.5" stroke="black" stroke-width="2" fill="none"/>
<polyline points="389.5,58.5,381.5,66.0,373.5,73.5,365.0,81.0,356.5,89.0,348.0,96.5,340.0,104.0,331.5,111.5,323.5,119.0,316.0,127.0,308.0,134.5" stroke="black" stroke-width="2" fill="none"/>
<polyline points="308.0,133.5,316.0,132.5,323.5,132.5,331.5,132.5,339.5,132.5,347.5,132.5,355.5,132.0,363.5,131.0,371.0,130.5,379.0,129.5,386.5,129.0,394.5,128.5,403.5,128.0,412.0,127.5,420.5,127.0,429.0,126.5,437.0,126.0,445.0,125.5,453.0,125.0,461.0,124.5,469.0,124.0,476.5,123.0" stroke="black" stroke-width="2" fill="none"/>
<polyline points="475.0,123.0,467.5,131.0" stroke="black" stroke-width="2" fill="none"/>
<polyline points="475.5,138.5,467.5,139.0,459.0,140.5,451.0,141.5,443.0,142.5,435.5,143.5" stroke="black" stroke-width="2" fill="none"/>
<polyline points="426.5,125.0,418.0,132.0" stroke="black" stroke-width="2" fill="none"/>
<polyline points="404.0,137.0,412.5,129.5,420.5,122.0,428.5,114.5" stroke="black" stroke-width="2" fill="none"/>
<polyline points="428.5,105.0,421.0,112.5,412.5,120.5,404.5,128.0,396.5,135.5" stroke="black" stroke-width="2" fill="none"/>
<polyline points="387.0,136.0,395.5,129.0,403.5,122.0,411.5,115.0,419.5,107.5,427.5,100.0" stroke="black" stroke-width="2" fill="none"/>
<polyline points="426.5,91.5,418.5,99.0,410.5,107.0,403.0,114.5,395.0,122.5,387.5,129.5,380.0,137.5,372.5,145.5" stroke="black" stroke-width="2" fill="none"/>
<polyline points="372.0,163.5,364.0,171.0,356.0,179.0,347.5,186.5" stroke="black" stroke-width="2" fill="none"/>
<polyline points="355.0,194.5,363.5,188.0,371.5,181.0" stroke="black" stroke-width="2" fill="none"/>
<polyline points="372.0,173.0,364.0,180.0,356.5,187.5,348.5,194.0" stroke="black" stroke-width="2" fill="none"/>
<polyline points="354.0,201.0,362.5,193.0" stroke="black" stroke-width="2" fill="none"/>
<polyline points="348.0,177.5,356.0,169.5,364.0,161.5" stroke="black" stroke-width="2" fill="none"/>
<polyline points="356.5,163.0,348.5,170.5" stroke="black" stroke-width="2" fill="none"/>
<polyline points="323.5,173.5,331.0,166.0,339.0,158.0,347.0,149.5,355.0,142.0,363.0,134.5,370.5,128.0,378.0,121.0,385.5,113.5,394.0,106.0,402.0,98.5,410.5,90.5,419.0,82.5,427.5,74.0,435.5,66.5" stroke="black" stroke-width="2" fill="none"/>
<polyline points="436.0,72.0,428.0,72.0" stroke="black" stroke-width="2" fill="none"/>
<polyline points="427.0,68.5,419.0,76.0,411.0,83.0,403.5,90.5,396.0,98.5,388.5,106.0,381.0,113.0,373.0,120.0,365.5,127.5,357.0,135.0,349.0,142.5,340.5,150.0,333.0,157.5,325.0,164.5" stroke="black" stroke-width="2" fill="none"/>
<polyline points="325.0,157.5,333.0,149.5,341.0,141.5,349.0,133.5,356.5,126.5,364.5,119.0,372.5,112.0,381.5,104.0,389.5,97.0,396.5,90.0,404.5,82.5,412.0,75.5,419.5,68.5,427.5,61.5" stroke="black" stroke-width="2" fill="none"/>
<polyline points="420.5,59.0,412.0,66.5,404.5,74.5,396.5,82.0,388.5,89.0,380.5,96.5,372.5,104.0,364.0,111.5,356.0,118.5,347.5,125.5,339.0,132.5,331.5,140.0,323.5,148.0,315.5,156.0" stroke="black" stroke-width="2" fill="none"/>
<polyline points="316.5,156.0,325.0,156.0,333.5,155.5,341.0,155.0,348.5,154.5,356.5,153.5,364.0,153.5,371.5,153.0,378.5,152.0,386.5,151.0,394.0,150.5,402.5,150.0,410.5,149.5,418.5,149.0,426.0,149.0,434.0,148.5,442.5,148.5,451.0,148.5,459.5,149.0,467.5,149.0,475.0,148.5" stroke="black" stroke-width="2" fill="none"/>
<polyline points="474.0,183.0,465.5,183.0,457.5,183.0,449.5,183.5,442.0,184.0,434.0,184.5,426.0,184.5,418.5,185.0,411.0,186.0,403.5,186.5,395.5,186.5,387.5,186.5,379.5,187.0,371.0,187.5,363.0,188.5,355.0,188.5,347.0,189.0,338.5,189.5,330.5,190.0,322.5,190.5" stroke="black" stroke-width="2" fill="none"/>
<polyline points="322.0,196.0,330.0,196.0,338.0,195.5,346.0,195.0,354.0,195.0,362.5,194.5,370.0,195.0,378.5,195.0,386.5,195.0,394.5,194.5,403.0,194.0,410.5,194.0" stroke="black" stroke-width="2" fill="none"/>
<polyline points="428.5,198.0,436.5,197.5,444.5,197.0,452.0,197.0,459.5,196.5,467.0,196.0" stroke="black" stroke-width="2" fill="none"/>
<polyline points="451.0,205.0,442.5,205.5" stroke="black" stroke-width="2" fill="none"/>
<polyline points="396.5,252.0,388.0,252.5,379.5,253.0,370.5,253.5,362.5,254.0" stroke="black" stroke-width="2" fill="none"/>
<polyline points="348.0,246.5,356.0,246.0,363.5,245.0,371.5,244.5,379.5,244.0,387.5,243.0,396.0,243.0" stroke="black" stroke-width="2" fill="none"/>
<polyline points="389.0,234.5,381.0,234.5,372.0,235.5,364.0,236.0,356.0,236.5,348.5,236.5" stroke="black" stroke-width="2" fill="none"/>
<polyline points="341.0,230.0,348.5,229.5,356.5,228.5,364.5,228.5,372.0,228.5,380.0,228.0,387.5,227.5,395.5,227.5" stroke="black" stroke-width="2" fill="none"/>
<polyline points="403.5,218.5,395.5,219.0,387.5,219.0,379.5,219.0,371.5,220.0,363.5,220.5,355.5,221.0,348.0,221.5,339.5,222.0" stroke="black" stroke-width="2" fill="none"/>
<polyline points="332.5,222.5,341.0,239.5,349.0,249.0,357.5,254.5,365.0,257.5,373.0,259.5,381.0,260.5,388.5,265.5" stroke="black" stroke-width="2" fill="none"/>
<polyline points="381.5,262.0,387.5,270.0,383.5,279.5,380.0,287.5,377.0,295.0,376.5,303.0,369.5,310.5,358.5,318.5,353.5,323.0,361.5,316.0,369.5,309.0" stroke="black" stroke-width="2" fill="none"/>
<polyline points="377.5,294.5,385.5,277.5" stroke="black" stroke-width="2" fill="none"/>
<polyline points="413.0,209.5,405.0,209.5,396.5,210.0,388.5,210.5,380.5,211.0,371.5,211.5,363.5,212.0,355.0,213.0,346.5,213.5,338.0,214.0,330.0,214.5" stroke="black" stroke-width="2" fill="none"/>
<polyline points="330.0,207.0,338.5,206.5,346.5,205.5,355.0,205.0,363.0,204.0,371.0,203.0,379.5,202.5,388.5,202.0,396.5,201.5,404.5,201.5,412.5,201.0" stroke="black" stroke-width="2" fill="none"/>
<polyline points="323.5,181.0,331.5,173.5,339.5,166.0,347.5,158.5,356.0,151.0,364.0,144.0,372.0,137.0,380.0,130.0,388.0,122.5,396.5,114.5,404.5,106.5,413.0,99.0,421.5,91.5" stroke="black" stroke-width="2" fill="none"/>
<polyline points="444.0,99.5,452.0,91.5,459.5,84.0" stroke="black" stroke-width="2" fill="none"/>
<polyline points="459.5,77.0,451.5,84.0,443.5,91.0" stroke="black" stroke-width="2" fill="none"/>
<polyline points="434.0,89.0,442.5,81.5,450.0,74.0" stroke="black" stroke-width="2" fill="none"/>
<polyline points="442.0,75.0,434.5,82.5" stroke="black" stroke-width="2" fill="none"/>
<polyline points="428.0,81.0,435.0,73.0,443.0,65.0" stroke="black" stroke-width="2" fill="none"/>
<polyline points="442.5,66.0,457.5,74.0" stroke="black" stroke-width="2" fill="none"/>
<polyline points="443.5,57.5,436.0,58.0,428.0,58.5,420.0,58.5,412.5,58.5,405.0,58.5,398.0,58.5,390.0,58.5,381.5,59.5,373.0,60.5,364.5,61.5,356.0,62.0,348.0,62.5" stroke="black" stroke-width="2" fill="none"/>
<polyline points="347.0,67.0,339.0,74.5,331.5,82.5,324.0,90.0" stroke="black" stroke-width="2" fill="none"/>
<polyline points="324.5,85.0,332.0,84.0,339.5,83.5,347.0,82.5,355.0,82.0,363.0,81.5,370.5,81.0,378.0,80.0,386.0,79.5,394.0,79.0,402.0,78.5,410.5,77.5,418.5,77.5,426.5,77.5,434.5,77.0,442.5,77.0,451.0,76.5,459.5,76.5,467.5,76.5,476.5,75.5,485.0,75.0" stroke="black" stroke-width="2" fill="none"/>
<polyline points="483.0,86.5,492.0,95.0,496.5,103.0" stroke="black" stroke-width="2" fill="none"/>
<polyline points="496.5,108.5,488.5,99.0" stroke="black" stroke-width="2" fill="none"/>
<polyline points="487.5,98.0,494.0,106.5,497.0,114.0,495.5,122.0,490.5,128.0" stroke="black" stroke-width="2" fill="none"/>
<polyline points="475.0,139.5,467.0,140.0,459.5,140.5,451.0,140.5,443.0,141.0,435.0,142.0,427.5,142.0,419.0,142.0,411.5,142.5,404.0,142.5,395.5,143.0,388.0,143.5,380.0,144.0,371.5,145.0,363.5,145.5,355.0,146.0,347.0,147.0,339.0,147.5,330.5,148.5,321.5,149.0,313.0,149.5" stroke="black" stroke-width="2" fill="none"/>
<polyline points="313.5,146.5,321.5,145.5" stroke="black" stroke-width="2" fill="none"/>
<polyline points="316.0,149.0,324.0,141.5,331.5,134.0,340.0,126.5,348.0,119.0,356.0,111.0,364.0,103.0,371.5,95.5,380.0,87.0,388.0,79.5,396.0,71.5,404.5,64.5,412.5,57.5" stroke="black" stroke-width="2" fill="none"/>
<polyline points="412.5,50.5,404.5,58.0,396.5,65.0,389.0,72.0,381.0,80.0,372.5,88.0,365.0,96.0,357.0,104.0,349.0,112.0,340.5,120.0,332.5,127.5,324.5,135.0,316.5,143.0" stroke="black" stroke-width="2" fill="none"/>
<polyline points="314.0,137.5,322.0,137.0" stroke="black" stroke-width="2" fill="none"/>
<polyline points="315.0,135.0,323.0,127.5,331.5,120.0,340.0,112.5,348.5,105.0,357.0,97.5,365.0,90.0,373.0,82.5,380.5,74.0,388.0,65.5,396.0,57.5,404.0,49.5" stroke="black" stroke-width="2" fill="none"/>
<polyline points="419.5,39.5,428.5,47.5,433.0,56.0" stroke="black" stroke-width="2" fill="none"/>
<polyline points="397.5,70.0,389.5,70.5,381.0,70.5,373.0,71.0,365.0,71.5,356.5,71.5,349.0,72.0" stroke="black" stroke-width="2" fill="none"/>
<polyline points="353.0,59.0,360.5,56.0,368.5,53.5,376.5,52.5,384.5,49.5,392.5,50.5,400.5,45.5,409.0,41.0,417.0,39.0,425.0,42.0" stroke="black" stroke-width="2" fill="none"/>
<polyline points="364.5,57.5,356.5,65.5,348.0,73.0,340.0,80.5,332.5,88.0,324.5,95.5,316.5,103.5" stroke="black" stroke-width="2" fill="none"/>
<polyline points="318.5,102.0,326.5,101.5,333.5,100.5,340.5,99.5,348.0,99.0,355.5,98.5,363.5,98.0,371.5,97.0,379.5,96.5,387.5,96.0,396.0,95.0,404.0,95.0,412.0,95.0,420.0,94.5,428.0,94.0,435.5,94.0,443.0,94.0,450.5,94.0,458.5,93.5,467.0,93.0,475.5,92.5" stroke="black" stroke-width="2" fill="none"/>
<polyline points="475.5,84.0,467.0,84.5,459.0,85.0,451.5,85.5,444.0,86.5,436.5,87.0,428.0,87.5,420.0,88.0,412.0,88.5,404.0,89.0,396.0,90.0,388.5,90.0,380.5,90.5,372.0,91.0,364.0,92.0,356.0,92.5,348.5,93.5,340.5,94.0,333.0,95.0,325.0,96.0,317.0,96.5" stroke="black" stroke-width="2" fill="none"/>
<polyline points="324.0,96.0,332.0,95.5,340.0,95.5" stroke="black" stroke-width="2" fill="none"/>
<polyline points="331.5,89.5,339.5,89.0,348.0,89.0,356.0,89.0" stroke="black" stroke-width="2" fill="none"/>
<polyline points="338.5,82.0,346.5,81.5,354.0,81.0,362.0,80.0,370.0,79.0,377.5,78.0,385.5,77.5" stroke="black" stroke-width="2" fill="none"/>
<polyline points="337.0,62.0,325.5,70.0,318.5,78.5,310.5,87.0,316.5,82.0,324.0,72.5,332.5,66.0,340.5,63.0,348.0,64.0,356.0,64.0,364.0,64.0,372.0,64.5,380.5,64.5,388.5,64.5,396.5,64.5,404.0,64.0,412.5,64.0,420.0,64.0,428.0,63.5,436.0,62.5,444.0,65.0,452.0,70.0,460.0,73.5,468.0,76.5,476.0,77.0" stroke="black" stroke-width="2" fill="none"/>
<polyline points="468.0,68.5,460.0,69.5,452.5,70.0,444.0,70.5,436.0,70.5,428.0,70.5,420.0,70.5,412.5,71.0,405.0,71.0,396.5,72.0,387.5,73.0,379.5,74.0,371.0,75.0,363.0,75.5,355.5,76.0,348.5,76.5,341.0,76.5,332.5,77.5,324.5,78.0" stroke="black" stroke-width="2" fill="none"/>
<polyline points="325.5,83.0,320.5,94.0,312.5,101.0,304.5,117.0" stroke="black" stroke-width="2" fill="none"/>
<polyline points="306.0,122.0,314.5,121.5,322.5,121.0,331.0,120.0" stroke="black" stroke-width="2" fill="none"/>
<polyline points="325.0,105.5,332.5,105.0,340.5,104.5" stroke="black" stroke-width="2" fill="none"/>
<polyline points="331.5,113.5,323.5,114.0,315.5,114.5" stroke="black" stroke-width="2" fill="none"/>
<polyline points="309.5,112.0,317.5,111.0,325.5,110.5,333.0,109.5,340.5,109.0,348.0,108.5,356.5,108.0,364.5,107.5,372.5,106.5,381.0,106.0,389.0,105.0,396.5,104.5,404.5,103.5,412.5,103.5,420.0,103.5,428.0,103.0,435.5,102.5,443.5,102.5,452.0,102.5,459.5,103.0,467.5,102.5,476.0,101.5" stroke="black" stroke-width="2" fill="none"/>
<polyline points="478.0,102.0,476.0,110.0,476.0,118.0,476.5,126.0,474.5,134.0,474.5,142.0,474.0,150.0,476.0,158.0,475.5,166.5,474.5,175.0,474.5,183.5,473.5,191.5,473.0,199.5,475.0,201.0" stroke="black" stroke-width="2" fill="none"/>
<polyline points="474.0,174.0,466.0,174.5,458.5,174.5,451.5,174.5,443.5,174.5,436.0,174.5,427.5,174.5,419.5,174.5,412.0,175.0,404.5,175.5,396.5,176.0,388.0,176.5,379.5,177.5,371.0,178.5,362.0,179.5,354.0,180.0,346.0,181.0,338.0,182.0,330.0,183.5,322.5,184.0" stroke="black" stroke-width="2" fill="none"/>
<polyline points="323.0,175.0,331.5,174.0,339.0,173.5,347.0,172.5,355.0,171.5,362.5,171.0,370.5,170.0,379.0,169.5,387.5,169.0,396.0,168.5,404.0,168.5,412.0,168.0,419.5,168.0,427.5,168.0,435.5,167.5,443.0,167.5,450.5,167.0,458.0,166.5,466.0,165.5,474.0,165.5" stroke="black" stroke-width="2" fill="none"/>
<polyline points="475.5,155.5,468.0,156.5,460.5,157.5,452.5,158.5,444.5,159.0,436.0,159.0,428.0,159.5,420.5,159.5,412.5,159.5,404.5,159.5,396.5,159.5,388.5,160.0,380.5,161.0,372.5,161.5,364.5,161.5,356.5,162.5,348.5,164.0,340.5,165.0,332.0,166.0,324.5,167.0,316.0,167.5" stroke="black" stroke-width="2" fill="none"/>
<polyline points="315.5,153.5,323.5,153.0" stroke="black" stroke-width="2" fill="none"/>
<polyline points="308.0,143.0,315.5,142.5,323.5,142.0,331.5,142.0,340.0,142.0,348.0,141.5,356.0,141.0,363.5,139.5,371.0,138.5,379.0,138.0,387.0,137.5,395.5,136.5,403.5,136.0,412.0,135.0,420.5,134.5,429.0,133.5" stroke="black" stroke-width="2" fill="none"/>
<polyline points="482.5,87.0,491.0,93.0,499.5,104.0" stroke="black" stroke-width="2" fill="none"/>
<polyline points="459.0,62.0,451.5,63.0,443.5,63.5,435.5,64.0,427.5,65.0,419.0,65.5,411.0,65.5,403.5,66.5,395.5,66.5,388.0,66.5,380.0,67.0,372.0,67.5,364.5,67.5,356.0,67.5,348.0,68.0,340.0,68.0,332.5,68.5" stroke="black" stroke-width="2" fill="none"/>
<polyline points="331.0,71.0,328.0,79.0,321.0,87.0,317.0,96.5,310.5,104.5,306.5,112.5,304.0,120.5,305.0,128.5,308.0,136.5,311.0,144.5,313.0,152.5,316.0,160.5,318.0,168.5,319.0,176.5,320.5,184.5,322.5,192.0,323.5,200.0,326.5,208.0,329.5,216.5,332.5,224.5,337.0,232.5,339.5,240.5,346.0,248.5,360.5,256.5" stroke="black" stroke-width="2" fill="none"/>
<polyline points="284.5,243.5,276.5,251.0,268.5,258.5,260.5,266.5,252.0,273.5,244.0,281.0,236.0,288.5,228.5,296.0,221.0,303.5,213.5,311.0,205.5,318.5,197.0,326.0,188.5,333.5,180.5,341.5,172.0,349.5,164.0,357.0,156.0,364.0,148.0,371.0,140.0,378.0" stroke="black" stroke-width="2" fill="none"/>
<polyline points="131.5,376.5,140.0,369.5,148.0,362.5,156.5,355.0,164.5,347.5,172.5,340.0,180.5,333.0,188.5,325.5,196.0,317.5,204.5,310.0,212.0,302.5,220.5,295.0,228.5,287.0,236.5,279.5,245.0,272.0,253.0,264.5,260.5,257.0,268.5,250.0,276.5,242.5,285.0,235.0" stroke="black" stroke-width="2" fill="none"/>
<polyline points="284.0,227.5,276.0,235.0,269.0,242.0,261.5,249.5,254.0,257.0,246.0,264.5,238.0,271.5,229.5,278.5,221.5,285.5,213.0,293.0,204.5,300.5,196.5,307.5,188.0,314.5,180.0,322.5,172.0,330.0,163.5,338.5,156.0,346.0,148.0,354.0,140.0,362.0,132.0,369.5,123.5,377.0" stroke="black" stroke-width="2" fill="none"/>
<polyline points="116.5,378.0,124.5,370.5,132.5,363.0,141.0,355.0,149.0,347.0,157.0,339.0,164.5,331.0,173.0,323.0,181.0,315.0,188.5,308.0,196.5,301.0,204.5,293.5,213.0,286.0,221.5,278.0,230.0,270.0,238.0,262.5,245.5,255.5,253.5,248.5,261.0,241.5,269.0,234.0,276.5,227.5,284.5,220.0" stroke="black" stroke-width="2" fill="none"/>
<polyline points="283.5,211.5,276.0,219.5,268.0,226.5,260.0,234.0,252.5,241.0,244.0,248.0,236.5,255.0,228.5,261.5,220.0,269.0,212.0,277.0,204.0,284.5,196.0,292.5,188.0,300.5,180.5,309.0,173.0,317.5,165.0,325.0,157.0,332.5,148.5,340.0,140.0,347.5,131.5,355.0,123.0,362.5,115.0,370.0,107.5,377.0" stroke="black" stroke-width="2" fill="none"/>
<polyline points="99.5,381.5,106.5,375.0,114.0,368.0,122.5,361.0,130.0,353.5,138.0,346.0,145.5,338.0,153.5,330.0,161.5,322.5,170.0,315.0,178.0,307.5,186.0,299.5,194.5,292.0,203.0,285.0,211.5,277.5" stroke="black" stroke-width="2" fill="none"/>
<polyline points="209.5,283.0,201.0,284.0" stroke="black" stroke-width="2" fill="none"/>
<polyline points="209.5,291.5,217.5,291.0,225.0,290.0,233.5,289.0,242.0,289.0,250.5,288.5,258.0,287.5,266.0,287.0" stroke="black" stroke-width="2" fill="none"/>
<polyline points="270.5,282.0,262.5,289.5,253.5,297.0,245.5,304.5,237.0,312.0,229.0,319.5,221.0,327.0,213.5,334.0,205.0,341.5,197.0,349.5,188.5,356.5,180.5,364.5,172.0,372.0,164.0,379.5" stroke="black" stroke-width="2" fill="none"/>
<polyline points="154.5,380.5,163.0,373.0,171.5,365.5,180.0,357.5,188.5,350.0,196.5,342.5,204.5,335.0,212.0,327.5,219.5,319.5,227.0,312.0,234.5,304.5,242.5,297.0,251.0,290.0,259.0,283.0,267.5,275.5,275.5,268.0" stroke="black" stroke-width="2" fill="none"/>
<polyline points="275.0,259.5,267.0,267.0,259.5,274.5,251.5,282.0,243.5,289.5,235.0,297.5,227.5,305.0,219.5,312.5,211.5,320.0,203.5,328.0,195.5,336.0,187.5,343.0,179.0,349.5,171.0,357.0,162.5,364.0,154.5,371.0,146.0,378.5" stroke="black" stroke-width="2" fill="none"/>
<polyline points="178.5,382.0,187.0,374.5,194.5,367.5,202.5,360.5,211.0,353.0,219.5,345.5,227.5,338.5,235.5,331.5,244.0,324.0,252.0,316.0,260.5,308.5" stroke="black" stroke-width="2" fill="none"/>
<polyline points="259.5,307.0,251.5,306.5,243.5,306.5,235.0,306.5,227.0,306.5,219.0,307.5,211.5,308.0,204.0,309.0,196.5,310.0,188.5,310.5,181.0,311.5,173.0,312.5,165.0,313.5,158.0,314.5,150.0,315.0" stroke="black" stroke-width="2" fill="none"/>
<polyline points="149.5,322.0,157.0,321.5,165.0,321.0,173.0,321.0,180.5,320.0,188.0,319.0" stroke="black" stroke-width="2" fill="none"/>
<polyline points="187.5,311.0,195.5,313.0,203.0,313.0,211.0,314.5" stroke="black" stroke-width="2" fill="none"/>
<polyline points="221.0,320.0,229.0,319.5,237.0,319.5,245.0,319.5,253.0,319.0,261.0,318.5,269.0,318.5" stroke="black" stroke-width="2" fill="none"/>
<polyline points="267.5,316.0,259.0,323.5,251.0,330.5,243.5,338.0,235.5,346.0,227.5,353.0,220.0,360.5,211.5,367.5,203.5,374.5,196.0,381.0" stroke="black" stroke-width="2" fill="none"/>
<polyline points="227.5,385.5,235.5,378.0,244.0,370.5,251.5,363.0,259.0,355.5,266.5,347.5,274.0,340.0,282.0,333.0" stroke="black" stroke-width="2" fill="none"/>
<polyline points="290.0,333.5,282.0,341.0,274.5,348.5,266.5,355.5,258.5,363.0,251.0,370.0,243.0,377.5,234.5,385.0" stroke="black" stroke-width="2" fill="none"/>
<polyline points="284.0,386.0,292.5,378.5,300.5,371.0,308.5,363.5,316.5,356.0" stroke="black" stroke-width="2" fill="none"/>
<polyline points="322.5,355.0,314.5,362.5,307.0,370.0,299.0,377.5,291.0,385.0" stroke="black" stroke-width="2" fill="none"/>
<polyline points="298.5,384.5,306.0,377.0,313.5,370.0,321.5,362.5" stroke="black" stroke-width="2" fill="none"/>
<polyline points="330.0,361.5,322.5,369.0,314.5,376.0,306.0,384.0" stroke="black" stroke-width="2" fill="none"/>
<polyline points="308.5,386.0,300.0,386.0" stroke="black" stroke-width="2" fill="none"/>
<polyline points="316.5,385.0,324.5,377.0,332.5,369.5" stroke="black" stroke-width="2" fill="none"/>
<polyline points="335.0,372.5,328.0,380.5,330.0,377.5" stroke="black" stroke-width="2" fill="none"/>
<polyline points="338.5,379.0,330.5,386.5" stroke="black" stroke-width="2" fill="none"/>
<polyline points="330.0,386.5,338.0,386.0" stroke="black" stroke-width="2" fill="none"/>
<polyline points="340.0,386.0,348.0,378.5" stroke="black" stroke-width="2" fill="none"/>
<polyline points="340.5,371.0,332.0,378.0,324.0,385.5" stroke="black" stroke-width="2" fill="none"/>
<polyline points="324.5,379.0,316.0,380.0" stroke="black" stroke-width="2" fill="none"/>
<polyline points="310.0,356.0,301.5,363.5,293.0,371.0,284.5,378.5,276.0,386.0" stroke="black" stroke-width="2" fill="none"/>
<polyline points="268.0,384.5,276.0,377.0,284.5,369.5,293.0,362.0,301.0,354.5,309.0,347.5" stroke="black" stroke-width="2" fill="none"/>
<polyline points="299.0,348.0,291.0,355.5,283.0,362.5,275.5,370.0,267.5,377.0,259.5,384.0" stroke="black" stroke-width="2" fill="none"/>
<polyline points="251.5,384.0,259.5,376.5,267.0,369.5,274.5,363.0,282.0,356.5,290.0,349.5,298.0,342.0" stroke="black" stroke-width="2" fill="none"/>
<polyline points="290.0,342.5,282.5,350.0,274.0,357.0,266.5,364.0,259.5,370.5,251.5,377.0,244.0,385.0" stroke="black" stroke-width="2" fill="none"/>
<polyline points="219.5,385.5,228.0,377.5,236.0,369.5,244.0,361.5,252.0,354.0,260.0,347.0,268.0,340.0,276.5,332.5,284.5,325.0" stroke="black" stroke-width="2" fill="none"/>
<polyline points="275.0,324.5,267.0,332.0,259.0,339.0,251.0,346.5,243.5,354.0,236.0,360.5,228.0,368.0,220.5,375.0,213.5,382.5" stroke="black" stroke-width="2" fill="none"/>
<polyline points="202.0,382.0,210.5,375.5,218.0,368.5,226.0,361.0,234.0,354.0,242.0,347.0,250.5,339.5,259.0,332.0,267.5,324.5" stroke="black" stroke-width="2" fill="none"/>
<polyline points="262.0,316.0,254.0,323.5,246.0,331.0,237.5,338.5,228.5,345.5,220.0,353.5,211.5,360.5,204.0,368.0,195.5,375.5,186.5,383.0" stroke="black" stroke-width="2" fill="none"/>
<polyline points="172.0,381.0,180.5,374.0,188.0,366.5,195.5,359.0,203.0,351.5,210.5,344.5,218.5,337.5,226.5,330.0,235.0,323.0,243.5,316.5,252.0,309.0,260.0,301.5" stroke="black" stroke-width="2" fill="none"/>
<polyline points="259.5,297.0,251.5,297.5,244.0,298.0,235.5,297.5,227.0,297.5,218.5,298.0,210.5,299.0" stroke="black" stroke-width="2" fill="none"/>
<polyline points="195.5,272.5,187.5,272.5" stroke="black" stroke-width="2" fill="none"/>
<polyline points="196.0,280.0,187.5,281.0,179.5,282.0,171.5,283.0" stroke="black" stroke-width="2" fill="none"/>
<polyline points="163.5,285.5,172.0,277.5,180.0,269.0,188.0,261.5,196.0,254.0,203.5,247.0,212.0,240.0,220.5,233.0,228.5,225.5,236.5,218.0,244.5,210.0,253.0,202.5,261.0,194.5,269.0,187.0" stroke="black" stroke-width="2" fill="none"/>
<polyline points="269.0,196.0,260.5,203.0,252.0,210.0,244.0,217.0,236.0,224.5,227.5,232.0,219.5,239.0,212.0,247.0,204.0,254.5,196.5,262.5,188.5,270.0,180.5,277.5,172.5,285.0,164.0,292.5,156.0,300.0,148.0,307.5,140.5,315.0,132.5,322.5,125.0,330.5,117.5,338.5,109.5,346.5,101.5,353.5,93.5,361.0,85.5,368.5,76.5,375.5" stroke="black" stroke-width="2" fill="none"/>
<polyline points="81.5,378.0,89.5,377.0,97.5,376.5,105.5,376.0,113.5,375.5,121.5,375.5,130.5,375.5,139.0,375.5,147.0,375.5,155.0,375.0,163.0,374.5,171.0,374.0,178.5,373.5,187.0,372.5,195.0,372.5,203.5,372.0,212.0,372.0,220.5,371.0,229.0,370.5,237.5,370.0,245.5,370.0,253.5,369.0,261.5,368.5,269.0,367.5,276.5,367.0,284.0,366.5,292.5,366.0" stroke="black" stroke-width="2" fill="none"/>
<polyline points="292.5,363.5,300.5,363.5" stroke="black" stroke-width="2" fill="none"/>
<polyline points="275.0,324.5,267.5,325.5,260.5,326.0,253.0,327.0,245.5,328.0,237.5,329.0,229.5,330.0,222.0,330.5,213.5,331.5" stroke="black" stroke-width="2" fill="none"/>
<polyline points="194.5,347.0,202.5,346.5,210.5,346.0,219.0,345.5,228.0,344.5,236.5,344.0,244.5,343.5,252.5,343.0,260.5,341.5,268.0,340.0,276.0,339.0,284.0,338.5" stroke="black" stroke-width="2" fill="none"/>
<polyline points="276.5,332.5,268.5,333.0,260.5,333.5,252.5,333.5,244.0,334.0,236.0,335.0,228.0,335.0,219.5,335.0,211.5,335.0,204.0,335.0,196.5,335.5,189.0,335.5" stroke="black" stroke-width="2" fill="none"/>
<polyline points="181.0,296.5,173.5,297.5" stroke="black" stroke-width="2" fill="none"/>
<polyline points="163.0,304.0,171.0,303.5,179.0,303.0,187.0,302.5,194.5,302.5,202.5,302.0,210.5,302.0,219.0,302.5,227.5,302.5,235.5,302.0,243.5,301.5,251.5,301.0,259.5,300.5" stroke="black" stroke-width="2" fill="none"/>
<polyline points="260.5,294.5,252.0,295.0,243.5,295.5,235.5,296.0,227.5,296.0,219.5,296.5,212.0,297.5,204.5,297.5,196.5,298.0,189.0,298.0,181.5,298.0,173.5,298.0,165.5,298.5,158.0,299.0,150.0,299.5,142.0,300.0" stroke="black" stroke-width="2" fill="none"/>
<polyline points="141.0,306.0,132.5,314.0,124.0,321.5,116.0,329.5,108.0,337.5,100.0,345.5,92.5,353.0,84.0,360.5,76.0,367.5,68.0,374.5,60.0,382.5" stroke="black" stroke-width="2" fill="none"/>
<polyline points="53.0,383.5,62.0,376.0,70.0,369.0,78.0,362.0,85.5,355.0,93.5,347.0,101.5,339.0,109.0,330.5,116.5,323.0,125.0,315.5" stroke="black" stroke-width="2" fill="none"/>
<polyline points="124.5,306.5,116.5,314.5,108.5,322.5,100.5,330.5,92.0,338.5,84.0,346.0,76.5,354.0,68.5,361.5,60.5,368.5" stroke="black" stroke-width="2" fill="none"/>
<polyline points="60.5,365.5,68.0,365.0,76.0,364.5,84.0,364.0,92.5,364.0,100.5,363.5,108.5,363.5,116.5,363.0,125.0,363.0,133.5,362.5,142.0,362.0,150.0,361.5,157.0,360.5,165.0,359.5,173.0,358.5,180.5,357.5,188.5,357.0,196.0,356.0,203.5,355.0,211.0,354.5,219.0,353.5,227.0,353.5,235.5,353.5,243.5,353.5,251.5,354.0,259.0,354.0,267.0,353.5,274.5,353.0,282.5,352.5,290.0,352.0,298.0,352.0,306.5,351.5,314.5,350.5,323.0,350.0,331.0,349.0,339.0,348.0" stroke="black" stroke-width="2" fill="none"/>
<polyline points="282.0,351.0,274.0,351.5,266.5,352.5,258.5,353.0,250.5,353.0,242.5,353.0,234.5,353.0,226.5,353.5,219.0,354.0,211.0,355.0,203.5,355.5,195.0,356.0,187.5,356.5,179.5,356.5,171.0,356.5,163.0,357.0,154.5,357.0,146.0,357.5,138.0,358.0,130.0,359.0,122.0,359.5,114.0,360.5" stroke="black" stroke-width="2" fill="none"/>
<polyline points="115.0,351.5,123.0,351.0,131.0,350.5,139.0,350.5,146.5,350.0,154.0,349.5,162.0,349.5,170.5,349.5,178.5,349.0,186.5,348.0,195.0,347.0,203.0,346.5,211.0,346.0,219.0,345.5,226.5,345.5,234.5,345.0,242.5,345.0,251.0,345.5,259.5,345.5,267.5,345.0,275.5,344.5,283.5,344.0" stroke="black" stroke-width="2" fill="none"/>
<polyline points="300.0,357.0,292.0,357.0,284.0,357.0,276.5,357.0,269.0,357.5,261.5,358.0,253.0,358.5,245.5,358.5,237.0,359.0,228.0,359.0,219.5,359.5,210.5,360.0,202.5,360.5,194.5,361.5,187.0,362.5,179.0,363.0,171.0,364.0,163.0,364.5,154.5,365.5,146.5,366.5,139.0,367.0,131.0,368.0,124.0,369.0,116.5,369.5,109.0,369.5,101.5,370.0" stroke="black" stroke-width="2" fill="none"/>
<polyline points="90.5,375.0,98.5,367.0,106.5,359.5,114.5,352.0,122.5,344.5,130.5,337.0,138.5,330.5,147.0,324.0,155.5,317.0,163.5,309.0,171.5,301.5,180.0,294.0,188.0,286.0,196.0,278.5,203.5,271.0,211.5,263.5,219.5,256.5,227.5,248.5,235.0,241.0,243.5,233.0,252.0,225.5,260.0,217.5,267.5,210.5,275.5,203.5" stroke="black" stroke-width="2" fill="none"/>
<polyline points="275.0,196.0,266.5,203.0,258.0,210.5,250.0,217.5,242.0,225.0,234.0,232.0,226.0,239.5,218.5,247.0,211.0,254.5,203.0,261.5,195.0,269.0,187.5,277.0,179.0,285.0,171.5,292.5,163.5,300.0,156.0,307.5,148.0,315.0,140.0,322.5,132.0,329.5,124.5,337.0,116.5,344.5,108.5,352.0,100.5,359.5,93.0,367.0,85.0,374.5" stroke="black" stroke-width="2" fill="none"/>
<polyline points="82.0,385.5,90.0,385.0,98.0,384.5,106.0,384.0,114.5,383.5,123.0,383.0,131.0,382.5,139.0,381.5,147.0,381.0,155.5,381.5,163.5,381.0,171.5,380.5,179.5,379.5,188.0,379.0,196.5,378.5,204.5,377.5,212.0,377.5,219.5,377.0,227.0,377.0,235.0,377.0,243.5,376.5,251.0,376.0,259.5,375.0,268.0,374.5,276.0,374.0,284.0,373.5,292.5,373.0" stroke="black" stroke-width="2" fill="none"/>
<polyline points="275.0,306.0,266.5,307.0,258.5,307.5,250.0,308.0,242.0,308.5,234.0,309.0,226.0,309.5,218.5,310.5,210.5,310.5,203.0,311.0,195.0,310.5,187.5,310.5,180.0,310.5,172.0,310.5,164.5,311.0,156.5,312.0,148.5,313.0,140.0,313.5,132.0,314.5,123.5,315.5,115.0,316.5,106.5,317.5,98.5,318.0,90.5,318.5" stroke="black" stroke-width="2" fill="none"/>
<polyline points="91.5,322.0,99.5,315.0" stroke="black" stroke-width="2" fill="none"/>
<polyline points="100.0,311.0,108.0,311.0,116.0,309.5,124.0,308.5,131.5,307.5,139.5,306.5,147.5,305.5,155.5,305.0,163.0,304.5,171.0,304.0,178.0,303.5,186.5,303.0,194.5,302.5,202.5,302.5,210.5,302.0,218.5,301.5,226.5,301.5,234.5,301.0,243.0,300.5,252.0,300.0,260.0,300.0" stroke="black" stroke-width="2" fill="none"/>
<polyline points="257.0,307.0,265.0,311.5,273.0,316.5,281.0,321.0,289.5,327.0,297.5,333.0,305.5,342.0,313.0,349.0,321.0,354.0,329.0,359.5,337.0,367.5" stroke="black" stroke-width="2" fill="none"/>
<polyline points="268.0,281.5,260.5,281.5,253.0,281.5,244.5,282.0" stroke="black" stroke-width="2" fill="none"/>
<polyline points="245.0,274.0,252.0,274.0,259.5,273.5,267.0,273.0" stroke="black" stroke-width="2" fill="none"/>
<polyline points="275.5,264.0,267.5,263.5,259.5,263.5,251.0,263.5,243.0,263.5" stroke="black" stroke-width="2" fill="none"/>
<polyline points="228.0,264.5,220.0,264.5" stroke="black" stroke-width="2" fill="none"/>
<polyline points="220.0,264.5,228.0,257.0,236.5,249.5,244.0,242.0,251.5,234.5,259.0,227.0,267.0,219.0,275.0,212.0" stroke="black" stroke-width="2" fill="none"/>
<polyline points="259.5,190.5,252.0,197.5,244.5,204.5,236.0,211.5,227.5,218.5,219.0,225.5,211.0,232.0,203.5,239.0,195.5,246.0,188.0,253.0,180.5,260.5,172.5,268.0,164.5,276.0,156.0,284.5" stroke="black" stroke-width="2" fill="none"/>
<polyline points="153.5,284.0,161.5,284.0,169.5,284.0,177.5,283.5,186.0,283.5,194.0,283.0,202.5,282.5,211.0,282.0,219.5,281.5,228.0,281.0,236.0,280.5,244.0,279.5,251.5,279.5,259.5,279.5,267.5,279.5" stroke="black" stroke-width="2" fill="none"/>
<polyline points="268.0,289.0,259.5,289.0,251.5,289.0,243.5,289.5,236.0,290.0,227.5,290.5,219.0,290.5,210.5,291.0,202.5,291.5,194.5,292.0,186.0,291.5,178.5,292.0,170.0,292.5,162.0,292.5,154.0,293.0" stroke="black" stroke-width="2" fill="none"/>
<polyline points="154.0,297.5,146.5,304.5,138.5,312.5,130.5,320.5,122.5,328.0,114.5,336.0,107.0,343.5,99.5,351.5,91.5,359.5,84.5,366.5,77.0,374.0,68.5,381.5" stroke="black" stroke-width="2" fill="none"/>
<polyline points="52.0,381.0,60.5,380.5,68.5,380.5,77.0,380.0,84.5,379.0,92.5,378.5,100.5,378.0,108.5,378.0,116.0,378.0,123.5,377.5,131.0,377.5,139.5,377.0,148.0,377.0,156.0,376.0,164.5,375.0,172.5,374.0,181.0,373.5,189.0,372.5,196.5,371.5,204.0,371.5,212.0,370.5,220.0,370.5,228.5,370.5,236.5,370.5,244.0,370.0,252.0,369.5,260.0,369.0,267.5,368.5,275.5,367.5,284.0,366.5,292.5,365.5,300.0,365.0,308.0,365.0,316.0,364.5,324.5,364.5,332.0,364.5,340.0,364.0,348.0,363.5,355.5,363.5" stroke="black" stroke-width="2" fill="none"/>
<polyline points="276.0,270.0,268.0,270.0,260.0,270.0,252.5,270.0,245.0,270.5,237.5,271.0,229.0,271.5,221.5,271.5,213.0,272.0,204.0,272.0,195.5,272.5,186.5,273.0,178.5,273.5,170.5,274.5,163.0,275.5,155.0,276.0" stroke="black" stroke-width="2" fill="none"/>
<polyline points="154.0,275.0,162.5,267.0,170.5,260.0,178.0,252.5,186.5,245.5,194.5,238.0,202.5,231.0,210.5,224.0,218.5,216.0,226.5,209.0,235.0,202.5,243.0,195.5,251.0,188.5,259.0,180.5" stroke="black" stroke-width="2" fill="none"/>
<polyline points="249.5,177.0,242.0,184.5,234.5,192.5,226.5,200.5,218.5,208.5,210.0,216.0,202.0,224.0,193.5,231.0,185.5,239.0,177.5,246.5,169.5,253.5,161.5,261.0" stroke="black" stroke-width="2" fill="none"/>
<polyline points="156.0,263.5,164.0,263.5,171.5,263.5,179.0,263.5,187.0,264.0,194.5,263.5,202.5,263.5" stroke="black" stroke-width="2" fill="none"/>
<polyline points="207.5,264.0,215.5,258.5,208.0,264.0,209.5,272.0,213.5,280.0" stroke="black" stroke-width="2" fill="none"/>
<polyline points="216.0,281.5,208.0,268.5" stroke="black" stroke-width="2" fill="none"/>
<polyline points="179.5,273.0,171.5,273.5" stroke="black" stroke-width="2" fill="none"/>
<polyline points="154.0,268.5,162.5,268.0,170.5,267.5,178.5,267.5,186.5,267.0,194.5,266.5,202.5,266.5,210.5,266.0,219.0,265.5,228.0,265.0,236.0,265.0,244.0,264.5,251.5,264.0,259.5,263.0,267.0,261.5,275.5,260.5" stroke="black" stroke-width="2" fill="none"/>
<polyline points="251.5,172.0,243.5,179.0,236.0,186.5,228.0,194.0,220.0,201.5,212.0,209.0,204.0,216.5,195.5,224.0,187.0,231.5,178.5,238.5,170.5,246.0,162.5,253.5,155.0,261.0" stroke="black" stroke-width="2" fill="none"/>
<polyline points="152.5,264.0,156.5,268.5,158.5,276.5" stroke="black" stroke-width="2" fill="none"/>
<polyline points="148.5,262.0,156.5,254.5,164.5,247.0,173.0,239.5,181.5,232.0,189.5,224.5,197.5,217.0,205.5,210.0,213.5,202.5,221.5,194.5,229.0,187.0,237.0,179.5,245.0,172.5" stroke="black" stroke-width="2" fill="none"/>
<polyline points="236.5,172.0,228.5,179.0,220.5,187.0,212.5,195.0,204.5,202.5,196.5,210.0,188.5,217.0,180.5,224.5,173.0,232.0,165.5,239.5,158.0,247.0,149.5,254.5" stroke="black" stroke-width="2" fill="none"/>
<polyline points="148.0,254.5,156.0,254.0,163.5,253.0,171.5,252.5,179.0,251.5,187.0,251.0,195.5,250.5,204.0,251.0,212.5,251.0,221.5,251.0,229.5,250.5,238.0,249.5,245.5,249.0,253.5,248.0,261.5,247.0,269.0,246.0,276.5,245.0,283.5,244.5" stroke="black" stroke-width="2" fill="none"/>
<polyline points="236.0,161.5,228.0,169.5,220.0,177.5,212.5,185.0,204.5,193.0,197.0,201.0,189.0,208.0,181.5,215.5,173.5,223.0,165.0,230.5,157.0,238.5,149.0,245.5" stroke="black" stroke-width="2" fill="none"/>
<polyline points="148.5,247.5,157.0,247.0,164.5,246.5,172.0,246.0,179.5,245.5,187.0,245.0,194.5,244.5,202.0,244.0,210.0,243.5,217.5,243.0,225.5,242.5,233.5,242.0,241.0,241.0,249.5,240.0,258.0,240.0,266.5,239.5,274.0,238.5,282.0,238.0" stroke="black" stroke-width="2" fill="none"/>
<polyline points="227.0,164.5,219.0,172.5,211.5,180.0,203.5,187.0,195.5,194.5,187.5,202.0,179.0,209.0,171.0,216.5,163.0,224.0,154.5,231.5,147.0,239.0" stroke="black" stroke-width="2" fill="none"/>
<polyline points="149.0,242.5,156.5,242.0,164.0,241.0,172.0,240.5,179.5,240.5,187.0,240.0,194.5,240.0,202.0,240.0,209.5,240.0,217.5,239.0,225.0,239.0,233.5,238.0,241.5,237.5,250.0,236.5,258.5,236.0,266.5,235.0,274.5,234.0,282.5,233.5" stroke="black" stroke-width="2" fill="none"/>
<polyline points="228.0,169.5,220.0,169.5,211.0,170.0,203.0,170.5" stroke="black" stroke-width="2" fill="none"/>
<polyline points="204.0,163.5,196.0,171.0,187.5,179.0,179.5,187.0,171.5,194.5,163.0,202.5,154.5,210.0,146.0,217.5" stroke="black" stroke-width="2" fill="none"/>
<polyline points="147.0,219.0,155.5,218.5,164.0,218.0,172.5,217.0,180.5,216.0,188.0,215.5,196.0,214.0,203.5,213.0,211.5,212.5,219.5,212.0,227.5,211.5,235.5,211.5,244.0,211.0,252.0,211.0,261.0,211.0,269.0,211.5,277.5,211.0" stroke="black" stroke-width="2" fill="none"/>
<polyline points="236.0,162.5,227.5,163.0,219.5,164.0,211.5,164.5,203.0,166.0,195.0,166.0" stroke="black" stroke-width="2" fill="none"/>
<polyline points="186.0,171.0,178.5,178.5,171.0,186.5,163.0,193.5,155.0,201.0,148.0,208.5" stroke="black" stroke-width="2" fill="none"/>
<polyline points="148.5,205.5,156.5,205.0,164.0,205.0,172.0,204.5,180.0,204.0,188.5,203.5,196.5,203.0,204.5,202.0,213.0,201.5,221.0,200.5,229.5,200.5,237.0,199.5,245.0,199.5,253.0,199.0,261.0,199.0,268.5,198.0,277.0,198.0,285.5,197.0" stroke="black" stroke-width="2" fill="none"/>
<polyline points="244.5,175.0,236.0,174.5,228.0,174.0,220.0,174.5,212.0,175.5,204.5,176.0,196.5,176.5,189.0,177.5" stroke="black" stroke-width="2" fill="none"/>
<polyline points="170.5,177.5,162.5,185.5,154.5,193.0" stroke="black" stroke-width="2" fill="none"/>
<polyline points="156.5,191.5,164.5,191.5,173.0,190.5,181.0,189.5,188.5,189.0,197.0,188.5,205.0,188.0,212.5,187.5,220.5,186.5,228.5,186.0,236.0,185.0,244.5,185.0,252.0,185.5,260.0,185.5,267.5,185.5" stroke="black" stroke-width="2" fill="none"/>
<polyline points="257.5,180.5,249.5,181.5,241.5,181.5,234.0,181.5,226.0,181.5,217.5,181.5,209.5,181.5,201.5,182.0,194.0,182.5,186.5,183.5,179.5,184.0,171.5,184.5" stroke="black" stroke-width="2" fill="none"/>
<polyline points="163.5,180.5,171.0,180.0,179.0,179.5,186.5,179.5,194.5,179.5,203.0,179.5,211.0,179.0,220.0,179.0,228.5,179.0,237.0,179.5,245.0,179.5,253.0,179.0,261.0,178.0" stroke="black" stroke-width="2" fill="none"/>
<polyline points="250.0,168.5,242.5,169.5,234.5,170.0,226.5,170.0,218.5,170.0,210.5,170.0,202.5,170.5,195.0,171.0,187.0,172.0,179.5,172.5,171.0,173.0" stroke="black" stroke-width="2" fill="none"/>
<polyline points="162.0,191.5,170.5,191.5,179.0,192.0,187.5,192.0,196.5,192.5,205.0,192.0,213.5,191.5,222.0,191.0,230.0,190.5,238.5,189.5,246.5,189.0,254.5,188.5,261.5,187.5,268.5,186.5" stroke="black" stroke-width="2" fill="none"/>
<polyline points="276.0,202.5,268.0,203.0,260.0,203.5,251.5,204.0,243.0,205.0,235.5,205.5,227.0,206.0,219.0,206.0,211.5,206.0,204.0,206.5,196.5,206.5,188.5,207.5,180.0,208.0,171.5,208.5,163.5,209.5,155.5,210.0" stroke="black" stroke-width="2" fill="none"/>
<polyline points="155.0,203.5,163.0,203.0,170.5,202.5,179.0,201.5,187.0,201.5,195.5,201.0,204.0,201.0,212.5,200.0,221.0,199.5,229.5,199.0,237.5,199.0,245.5,198.0,253.5,197.5,261.0,196.5,268.5,196.0" stroke="black" stroke-width="2" fill="none"/>
<polyline points="283.0,243.0,275.5,244.0,267.5,244.5,260.0,245.0,251.5,244.5,243.0,244.5,234.5,245.0,226.5,246.0,218.5,246.5,211.0,247.0,203.5,247.0,196.0,247.5,188.5,248.0,180.5,249.0,172.0,249.5,164.0,250.0,156.5,250.0,148.5,250.5" stroke="black" stroke-width="2" fill="none"/>
<polyline points="144.0,257.0,152.0,265.5,153.0,273.5,157.0,277.5" stroke="black" stroke-width="2" fill="none"/>
<polyline points="149.0,261.5,157.5,261.5,165.5,261.0,173.5,260.5,181.5,260.0,189.5,259.0,197.5,258.5,205.0,257.5,213.0,256.5,221.0,255.5,229.0,255.0,237.0,254.5,245.0,254.5,253.0,254.5,261.0,254.0,269.0,253.5,277.0,253.5,284.5,253.0" stroke="black" stroke-width="2" fill="none"/>
<polyline points="276.0,250.0,268.0,250.5,260.0,251.0,252.5,251.5,244.5,251.5,236.0,251.5,228.0,251.5,220.0,252.5,212.5,252.5,205.0,253.5,197.0,254.5,188.5,255.0,180.5,256.0,172.0,257.0,164.0,258.0,155.5,258.0,147.0,258.5" stroke="black" stroke-width="2" fill="none"/>
<polyline points="139.5,236.0,147.5,236.0,155.5,235.5,163.5,235.5,172.0,235.0,180.5,234.5,188.5,234.0,195.5,233.5,203.5,233.0,211.5,232.0,219.5,231.5,227.5,231.0,234.5,230.5,242.0,229.5,249.5,229.0,257.5,228.5,265.5,228.5,274.0,228.5,282.0,228.5,289.5,228.5" stroke="black" stroke-width="2" fill="none"/>
<polyline points="284.5,225.0,276.5,226.0,268.5,227.0,260.0,228.0,252.0,228.5,244.0,228.5,235.0,229.0,227.0,229.5,219.0,229.5,211.0,230.0,203.5,230.5,196.5,231.5,189.0,232.0,181.5,232.5,173.5,233.0,165.0,233.5,157.0,234.0,148.5,234.5" stroke="black" stroke-width="2" fill="none"/>
<polyline points="145.5,233.5,154.0,226.0,162.5,218.5,171.0,211.0,179.5,203.0,187.0,195.5,194.5,188.5,202.0,181.0,210.5,173.0,219.0,165.0" stroke="black" stroke-width="2" fill="none"/>
<polyline points="212.5,162.5,204.0,170.0,195.5,177.5,187.5,185.5,180.0,193.5,171.5,201.5,163.5,209.5,154.5,217.5,146.0,225.5" stroke="black" stroke-width="2" fill="none"/>
<polyline points="149.5,226.5,157.0,226.0,165.5,225.5,173.0,225.0,181.0,224.0,188.5,223.0,196.0,222.5,203.5,222.0,211.5,222.0,219.0,222.0,227.0,221.0,235.0,221.0,243.5,219.5,251.5,219.0,259.5,218.0,268.0,217.5,276.0,217.0,284.0,216.5" stroke="black" stroke-width="2" fill="none"/>
<polyline points="292.5,220.5,284.5,222.0,276.5,222.5,268.5,223.0,260.0,223.5,251.0,224.5,242.5,225.0,234.5,225.5,226.5,226.0,218.5,226.5,211.0,227.0,203.0,227.0,195.5,227.5,187.5,228.0,180.0,228.5,173.0,229.0,165.0,229.5,157.0,229.5,149.0,230.0" stroke="black" stroke-width="2" fill="none"/>
<polyline points="148.5,222.5,156.0,222.0,164.0,221.0,172.0,220.5,180.5,220.5,188.5,219.5,196.0,218.5,204.0,217.0,212.5,216.5,220.5,215.5,229.0,214.5,236.5,214.5,244.0,214.0,251.5,214.0,259.5,214.0,268.0,214.0,276.0,214.0,284.0,213.0" stroke="black" stroke-width="2" fill="none"/>
<polyline points="284.5,206.0,276.0,205.5,268.0,205.0,260.0,205.5,252.0,206.5,244.5,207.0,236.5,207.5,229.0,208.5,221.0,209.0,213.5,209.5,205.5,210.5,197.5,212.0,189.0,212.5,181.0,213.0,173.0,213.0,165.0,213.0,156.5,213.5,148.5,214.0" stroke="black" stroke-width="2" fill="none"/>
<polyline points="142.5,213.0,150.5,195.0,158.5,184.5,166.0,176.5,174.0,173.0,182.0,169.0,189.5,165.5,197.0,162.5,205.0,159.0,213.0,158.0,221.0,158.0,229.0,160.5,237.0,165.5,245.0,171.0,253.0,175.0,261.0,182.0,269.5,192.0,278.0,203.0" stroke="black" stroke-width="2" fill="none"/>
<polyline points="276.5,189.0,268.5,189.5,260.0,190.0,252.0,191.0,243.5,192.0,235.5,193.0,227.5,194.0,219.5,194.5,212.0,194.5,204.5,195.0,196.5,195.0,189.0,195.5,181.0,196.0,173.5,196.5,165.0,196.0,156.5,196.0,148.0,196.5" stroke="black" stroke-width="2" fill="none"/>
<polyline points="204.0,160.5,181.5,168.0,166.0,176.0,158.0,184.0,151.0,192.0,146.0,200.5,143.5,208.5,141.5,217.0,142.0,225.0,142.0,233.5,142.0,241.5,141.5,249.0,142.5,257.0,145.5,265.0,150.0,273.5,152.0,281.5,154.5,289.5,154.5,297.5" stroke="black" stroke-width="2" fill="none"/>
<polyline points="148.5,330.5,156.5,330.0,164.5,329.5,172.0,329.5,179.5,329.0" stroke="black" stroke-width="2" fill="none"/>
<polyline points="181.0,335.5,173.0,336.0,164.5,336.5,156.0,337.0,148.0,337.5" stroke="black" stroke-width="2" fill="none"/>
<polyline points="140.5,335.5,132.5,336.0,124.5,336.0,116.5,337.0" stroke="black" stroke-width="2" fill="none"/>
<polyline points="116.0,344.0,124.0,343.5,131.5,343.0,139.5,342.5,148.0,342.0,156.0,342.0,164.0,341.0,171.0,340.5,179.0,340.0,186.0,339.0" stroke="black" stroke-width="2" fill="none"/>
<polyline points="139.5,327.0,131.5,327.5,123.5,327.5,115.5,328.0" stroke="black" stroke-width="2" fill="none"/>
<polyline points="116.5,321.5,124.5,320.5,132.0,320.0" stroke="black" stroke-width="2" fill="none"/>
<polyline points="114.0,305.5,106.5,313.0,98.5,320.5,90.5,328.0,82.0,336.0,74.0,343.5,66.5,351.5" stroke="black" stroke-width="2" fill="none"/>
<polyline points="67.0,350.5,75.0,350.0,83.0,349.5,90.5,349.0,98.5,347.5,106.5,347.0,115.5,346.5,124.0,346.5,132.5,346.5,140.5,346.0,148.5,345.5,156.5,345.0,164.5,344.5,172.0,344.5,179.5,344.0,187.5,344.0,195.5,343.0,204.0,342.5,212.0,341.0,220.5,340.5,228.5,340.0,237.0,339.5,244.5,339.5,252.0,339.5,259.5,339.0,267.0,338.5,274.5,338.0,282.5,337.5,290.5,337.0,298.5,336.0,306.0,335.5,314.0,335.0" stroke="black" stroke-width="2" fill="none"/>
<polyline points="283.5,316.0,275.5,316.5,268.0,316.5,260.0,316.5,252.5,316.0,244.0,316.0,236.5,317.0,228.5,317.5,220.5,318.5,213.0,319.0,205.0,319.5,196.5,320.0,189.0,320.5,181.0,321.5,172.5,322.5,164.5,322.5,156.0,322.5,148.0,322.5,139.5,322.0,131.0,322.5,122.5,323.0,114.5,323.0,106.5,324.0,98.0,324.5,89.5,324.5,81.5,325.0" stroke="black" stroke-width="2" fill="none"/>
<polyline points="83.5,330.0,76.0,337.5" stroke="black" stroke-width="2" fill="none"/>
<polyline points="75.0,333.5,83.0,333.5,91.0,332.5,99.0,332.0,106.5,331.5,115.0,330.5,123.0,330.0,131.0,330.0,139.0,329.5,147.5,329.0,156.0,328.5,164.0,328.0,172.5,327.5,181.0,327.0,189.0,326.5,197.5,326.5,205.0,326.0,213.0,326.0,221.0,326.5,229.0,326.0,236.5,325.5,244.5,325.5,253.0,325.0,260.5,324.0,267.5,322.5,275.0,321.5,283.0,321.5,291.0,321.0,299.0,320.5" stroke="black" stroke-width="2" fill="none"/>
<polyline points="306.0,327.5,298.0,328.5,290.5,329.0,282.5,329.5,273.5,330.0,265.5,330.0,258.0,330.0,251.0,331.0,243.5,331.5,236.0,332.0,229.0,332.0,220.5,332.5,212.0,333.0,204.0,333.0,196.0,333.5,188.0,334.0,180.5,335.0,173.0,336.0,165.0,336.0,157.0,336.5,149.5,337.0,141.0,337.5,133.0,338.0,125.0,338.5,116.5,339.5,108.5,340.0,100.0,340.5,91.5,340.5,83.0,340.5,75.0,341.0,67.0,341.5" stroke="black" stroke-width="2" fill="none"/>
<polyline points="61.5,356.0,69.5,355.5,78.0,355.5,86.0,355.5,93.5,355.5,101.5,355.5,109.5,354.5,117.5,354.0,125.0,353.5,133.0,353.0,141.0,352.5,149.5,352.5,157.5,352.0,165.5,351.5,173.5,351.0,181.5,350.0,189.5,349.5,197.0,348.5,205.0,347.5,213.0,346.5,221.0,346.0,229.0,345.5,237.0,345.5,245.0,345.5,253.0,345.0,261.0,344.5,269.0,344.5,276.5,344.0,284.5,343.5,291.5,343.0,299.5,342.5,307.5,342.0,316.0,342.0,324.0,342.0" stroke="black" stroke-width="2" fill="none"/>
<polyline points="338.0,356.0,330.5,355.5,322.0,356.0,314.0,356.0,306.0,356.5,298.0,357.0,290.0,357.0,282.5,357.5,275.0,358.5,267.5,359.5,260.5,360.0,253.0,361.0,245.5,362.0,237.5,363.0,229.5,364.0,222.0,364.5,213.5,365.5,205.5,366.0,196.5,366.0,188.0,366.0,179.5,365.5,171.0,366.0,163.0,366.5,155.5,367.5,147.5,368.0,140.0,369.0,132.0,369.5,124.0,370.0,115.5,370.5,107.5,371.0,100.0,371.0,92.0,371.5,84.5,372.0,76.5,373.0,68.5,373.5,60.5,373.5,52.5,373.5" stroke="black" stroke-width="2" fill="none"/>
<polyline points="104.5,308.0,88.5,316.0,79.5,324.0,71.5,331.5,66.0,339.0,62.0,346.5,58.0,354.5,55.0,362.5,52.0,370.5,48.5,378.5,47.5,379.5,55.5,358.5,63.5,341.5,71.5,329.5,79.5,322.0,87.5,315.0,95.5,310.0,103.5,307.0,112.0,306.0,120.5,306.0,128.5,304.5,136.5,301.5,144.0,299.5,152.0,297.0" stroke="black" stroke-width="2" fill="none"/>
<polyline points="228.0,161.0,240.0,169.0,254.0,177.0,263.0,185.0,269.5,193.0,275.5,201.0,280.5,209.0,282.5,217.0,284.0,225.0,286.0,233.5,284.0,241.5,281.0,249.5,278.0,257.0,276.5,265.0,271.5,273.0,270.0,281.0,266.5,289.0,261.0,297.0,258.0,305.5,266.0,313.5,280.0,322.0,290.0,329.5,301.0,337.5,308.5,345.5,318.5,353.5,329.5,361.5,338.0,369.5,342.0,377.0,347.0,382.0,348.5,381.5,356.5,378.5" stroke="black" stroke-width="2" fill="none"/>
<polyline points="324.5,127.0,317.0,127.5,309.5,128.0" stroke="black" stroke-width="2" fill="none"/>
<svg version="1.0" width="300.000000pt" height="65.000000pt" viewBox="0 0 300.000000 65.000000" preserveAspectRatio="xMidYMid meet" x="200.0" y="0">
<metadata>
Created by potrace 1.10, written by Peter Selinger 2001-2011
</metadata>
<g transform="translate(0.000000,65.000000) scale(0.100000,-0.100000)" fill="#000000" stroke="none">
<path d="M40 320 l0 -250 75 0 75 0 0 250 0 250 -75 0 -75 0 0 -250z m98 212 c10 -7 13 -56 12 -211 0 -112 -2 -207 -6 -212 -7 -12 -51 -11 -59 1 -4 6 -6 99 -6 207 0 176 2 199 17 210 21 15 25 16 42 5z"/>
<path d="M230 560 c0 -5 10 -10 23 -10 21 0 22 -3 19 -60 -3 -39 0 -60 7 -60 7 0 11 23 11 60 0 53 2 60 20 60 11 0 20 5 20 10 0 6 -22 10 -50 10 -27 0 -50 -4 -50 -10z"/>
<path d="M370 500 l0 -70 41 0 c24 0 38 4 34 10 -3 6 -17 10 -31 10 -17 0 -24 5 -24 20 0 16 7 20 30 20 17 0 30 5 30 10 0 6 -13 10 -30 10 -23 0 -30 4 -30 20 0 16 7 20 30 20 17 0 30 5 30 10 0 6 -18 10 -40 10 l-40 0 0 -70z"/>
<path d="M529 552 c-28 -23 -30 -73 -4 -102 24 -26 76 -26 100 0 16 18 16 20 2 20 -10 0 -17 -4 -17 -9 0 -13 -33 -19 -58 -10 -26 10 -38 50 -22 78 8 15 20 21 45 21 19 0 35 -4 35 -10 0 -5 8 -10 18 -10 14 1 13 4 -7 20 -29 25 -62 25 -92 2z"/>
<path d="M700 500 c0 -39 4 -69 9 -66 4 3 6 17 3 31 -4 23 -1 25 32 25 34 0 35 -1 30 -30 -4 -19 -2 -30 5 -30 7 0 11 25 11 70 0 45 -4 70 -11 70 -7 0 -9 -11 -5 -30 5 -29 4 -30 -30 -30 -33 0 -36 2 -32 25 3 14 1 28 -3 31 -5 3 -9 -27 -9 -66z"/>
<path d="M862 498 l1 -73 6 60 6 60 33 -57 c19 -32 38 -58 43 -58 5 0 9 32 9 70 0 43 -4 70 -11 70 -7 0 -8 -18 -4 -55 4 -30 5 -55 2 -55 -3 0 -21 25 -39 55 -18 30 -36 55 -40 55 -5 0 -7 -33 -6 -72z"/>
<path d="M1033 500 c0 -41 2 -58 4 -37 2 20 2 54 0 75 -2 20 -4 3 -4 -38z"/>
<path d="M1117 563 c-18 -17 -6 -53 24 -68 16 -9 28 -22 26 -28 -5 -17 -38 -21 -48 -6 -4 7 -11 10 -15 6 -11 -11 17 -37 41 -37 44 0 48 62 5 80 -16 7 -30 17 -30 22 0 15 32 21 40 7 12 -18 22 -7 14 15 -6 16 -44 22 -57 9z"/>
<path d="M1262 554 c-28 -20 -31 -83 -4 -107 25 -23 75 -21 97 3 21 24 17 25 -19 6 -35 -18 -65 -10 -78 20 -17 38 7 74 48 74 18 0 36 -4 39 -10 3 -5 11 -10 17 -10 6 0 3 9 -7 20 -22 24 -62 26 -93 4z"/>
<path d="M1430 500 c0 -45 4 -70 11 -70 7 0 10 12 7 30 -4 28 -3 30 30 30 32 0 33 -1 27 -30 -4 -19 -3 -30 4 -30 7 0 11 27 11 70 0 45 -4 70 -11 70 -7 0 -9 -11 -5 -30 5 -28 4 -30 -28 -30 -31 0 -32 2 -28 30 3 18 0 30 -7 30 -7 0 -11 -25 -11 -70z"/>
<path d="M1590 500 l0 -70 35 0 c19 0 35 5 35 10 0 6 -13 10 -30 10 -23 0 -30 4 -30 20 0 16 7 20 30 20 17 0 30 5 30 10 0 6 -13 10 -30 10 -23 0 -30 4 -30 20 0 16 7 20 30 20 17 0 30 5 30 10 0 6 -16 10 -35 10 l-35 0 0 -70z"/>
<path d="M1733 550 c-2 -19 4 -20 123 -20 l124 0 0 -230 c0 -223 1 -230 20 -230 19 0 20 7 20 230 l0 230 119 0 c110 0 119 1 124 20 5 20 0 20 -262 20 -260 0 -267 -1 -268 -20z"/>
<path d="M2440 455 l0 -115 -75 0 c-68 0 -75 -2 -75 -20 0 -18 7 -20 75 -20 l75 0 0 -115 c0 -108 1 -115 20 -115 19 0 19 8 19 250 0 242 0 250 -19 250 -19 0 -20 -7 -20 -115z"/>
<path d="M2510 320 l0 -250 75 0 75 0 0 250 0 250 -75 0 -75 0 0 -250z m105 208 c8 -8 8 -405 0 -417 -10 -17 -53 -13 -63 6 -11 21 -15 383 -4 399 12 19 53 26 67 12z"/>
<path d="M2687 551 c3 -11 13 -21 22 -21 33 0 119 -49 144 -81 52 -70 59 -167 17 -237 -26 -43 -95 -91 -141 -98 -25 -4 -39 -12 -42 -25 -12 -44 109 -6 171 54 54 52 76 103 76 177 0 123 -89 226 -212 246 -38 6 -40 5 -35 -15z"/>
<path d="M1810 285 l0 -215 70 0 70 0 0 215 0 215 -70 0 -70 0 0 -215z m104 169 c8 -20 8 -318 0 -338 -8 -21 -60 -21 -68 0 -8 21 -8 339 1 347 13 13 61 7 67 -9z"/>
<path d="M2120 285 l0 -215 70 0 70 0 0 215 0 215 -70 0 -70 0 0 -215z m108 6 c2 -133 -1 -176 -10 -183 -21 -13 -55 -9 -62 8 -8 21 -8 318 0 339 5 11 16 15 38 13 l31 -3 3 -174z"/>
<path d="M236 325 c1 -69 14 -105 14 -42 0 34 2 37 30 37 28 0 30 -3 30 -35 0 -19 5 -35 10 -35 6 0 10 30 10 70 0 40 -4 70 -10 70 -5 0 -10 -13 -10 -30 0 -27 -3 -30 -30 -30 -27 0 -30 3 -30 30 0 17 -4 30 -8 30 -4 0 -7 -29 -6 -65z"/>
<path d="M397 372 c-24 -27 -21 -74 6 -100 31 -29 62 -28 94 4 20 20 24 31 19 57 -3 18 -14 38 -23 45 -25 18 -77 15 -96 -6z m81 -8 c41 -28 22 -94 -28 -94 -40 0 -67 39 -49 72 22 41 42 47 77 22z"/>
<path d="M576 368 c-23 -32 -20 -65 9 -93 29 -30 66 -32 90 -5 10 11 13 20 7 20 -6 0 -14 -4 -17 -10 -9 -14 -58 -13 -73 2 -18 18 -14 63 6 81 23 21 41 21 64 0 10 -9 21 -13 26 -9 12 13 -30 36 -64 36 -23 0 -38 -7 -48 -22z"/>
<path d="M740 320 c0 -40 4 -70 10 -70 6 0 10 16 10 35 0 32 2 35 30 35 28 0 30 -3 30 -36 0 -21 4 -33 10 -29 6 3 10 35 10 71 0 36 -4 64 -10 64 -5 0 -10 -13 -10 -30 0 -27 -3 -30 -30 -30 -27 0 -30 3 -30 30 0 17 -4 30 -10 30 -6 0 -10 -30 -10 -70z"/>
<path d="M897 384 c-17 -17 -5 -50 23 -66 33 -19 38 -35 14 -45 -10 -4 -22 0 -29 10 -16 22 -27 10 -14 -14 11 -22 39 -25 57 -7 18 18 15 58 -5 65 -30 10 -42 24 -36 39 7 19 23 18 40 -3 13 -17 14 -17 11 2 -3 20 -46 33 -61 19z"/>
<path d="M1027 372 c-23 -25 -21 -78 3 -102 26 -26 62 -25 91 1 21 18 21 20 4 13 -53 -19 -73 -16 -91 10 -34 52 20 105 72 71 31 -20 46 -11 18 10 -27 20 -78 19 -97 -3z"/>
<path d="M1190 318 c0 -39 3 -68 8 -64 4 4 7 20 7 34 0 23 4 27 30 27 26 0 30 -4 30 -27 1 -15 4 -30 8 -34 4 -4 7 25 7 64 0 40 -4 72 -8 72 -5 0 -7 -13 -4 -30 4 -29 3 -30 -32 -30 -36 0 -37 1 -32 30 2 17 0 30 -5 30 -5 0 -9 -32 -9 -72z"/>
<path d="M1338 333 c4 -63 15 -83 42 -83 10 0 22 6 28 13 12 15 21 127 10 127 -4 0 -8 -21 -8 -47 0 -56 -10 -76 -36 -71 -16 3 -20 14 -22 61 -2 31 -6 57 -10 57 -4 0 -5 -26 -4 -57z"/>
<path d="M1480 320 l0 -70 30 0 c17 0 30 5 30 10 0 6 -12 10 -26 10 -27 0 -27 0 -21 60 4 37 3 60 -3 60 -6 0 -10 -31 -10 -70z"/>
<path d="M1590 320 l0 -70 35 0 c19 0 35 5 35 10 0 6 -13 10 -28 10 -24 0 -28 4 -27 23 1 18 7 21 28 19 15 -2 27 1 27 7 0 6 -10 11 -23 11 -13 0 -26 3 -30 6 -12 12 6 34 29 34 13 0 24 5 24 10 0 6 -16 10 -35 10 l-35 0 0 -70z"/>
<path d="M237 203 c-4 -3 -7 -35 -7 -70 l0 -63 38 0 c26 0 45 7 57 20 25 27 22 80 -6 102 -21 18 -69 24 -82 11z m77 -29 c32 -32 11 -84 -34 -84 -29 0 -30 1 -30 50 0 46 2 50 24 50 14 0 32 -7 40 -16z"/>
<path d="M390 140 l0 -70 35 0 c19 0 35 5 35 10 0 6 -13 10 -30 10 -23 0 -30 4 -30 20 0 16 7 20 30 20 17 0 30 5 30 10 0 6 -13 10 -30 10 -23 0 -30 4 -30 20 0 16 7 20 30 20 17 0 30 5 30 10 0 6 -16 10 -35 10 l-35 0 0 -70z"/>
<path d="M525 185 c-28 -27 -31 -45 -14 -78 16 -30 28 -37 66 -37 22 0 37 7 47 22 26 37 20 48 -24 48 -22 0 -40 -4 -40 -10 0 -5 14 -10 30 -10 36 0 39 -12 5 -30 -20 -11 -28 -10 -50 4 -27 18 -34 63 -13 84 15 15 61 15 76 0 6 -6 15 -8 19 -4 11 11 -27 36 -54 36 -13 0 -35 -11 -48 -25z"/>
<path d="M700 190 c-26 -26 -26 -81 -2 -103 29 -26 77 -22 101 9 30 38 27 44 -24 44 -54 0 -60 -18 -7 -22 l37 -3 -27 -18 c-53 -36 -108 15 -74 69 18 26 38 29 91 10 17 -7 17 -5 -4 13 -29 26 -65 27 -91 1z"/>
<path d="M860 140 l0 -70 35 0 c19 0 35 5 35 10 0 6 -13 10 -30 10 -23 0 -30 4 -30 20 0 16 7 20 30 20 17 0 30 5 30 10 0 6 -13 10 -30 10 -23 0 -30 4 -30 20 0 16 7 20 30 20 17 0 30 5 30 10 0 6 -16 10 -35 10 l-35 0 0 -70z"/>
<path d="M980 141 c0 -46 4 -71 11 -71 8 0 9 17 4 55 -3 30 -4 55 -2 55 3 0 20 -25 38 -55 18 -30 37 -55 41 -55 4 0 8 24 8 54 0 30 3 61 6 70 3 9 1 16 -5 16 -7 0 -11 -22 -11 -57 l-1 -58 -35 55 c-19 30 -39 57 -44 58 -6 2 -10 -26 -10 -67z"/>
<path d="M1130 140 l0 -70 38 0 c47 0 72 24 72 68 0 43 -31 72 -75 72 l-35 0 0 -70z m86 25 c24 -37 6 -75 -36 -75 -29 0 -30 1 -30 50 0 47 2 50 25 50 15 0 31 -10 41 -25z"/>
<path d="M1300 188 c-41 -44 -15 -118 43 -118 38 0 50 7 66 37 17 33 14 51 -14 78 -30 31 -68 32 -95 3z m89 -12 c20 -24 9 -69 -21 -85 -24 -14 -28 -14 -47 3 -23 21 -28 65 -9 84 17 17 63 15 77 -2z"/>
<path d="M1460 140 c0 -38 4 -70 9 -70 5 0 7 27 5 61 l-4 60 27 -3 c34 -4 45 -37 15 -45 -20 -5 -20 -6 -5 -39 9 -19 23 -34 30 -34 10 0 10 5 -3 25 -15 22 -15 26 0 40 9 9 16 22 16 29 0 21 -35 46 -63 46 -27 0 -27 -1 -27 -70z"/>
<path d="M1590 140 c0 -40 4 -70 10 -70 6 0 10 14 10 30 0 25 4 30 25 30 14 0 25 5 25 10 0 6 -11 10 -25 10 -18 0 -25 5 -25 20 0 15 7 20 25 20 14 0 25 5 25 10 0 6 -16 10 -35 10 l-35 0 0 -70z"/>
</g>
</svg></svg>
