<svg xmlns="http://www.w3.org/2000/svg" version="1.1"><polyline points="266.5,147.5,251.5,155.5,243.5,163.5,237.0,171.5,230.5,179.5,226.0,188.0,223.0,196.0,221.0,204.5,224.0,213.0,224.0,221.0,226.0,229.0,226.5,237.0,225.0,245.0,227.0,253.0,228.5,260.5,229.5,268.5,231.0,276.0,232.5,284.0,234.0,292.0,239.0,300.0,245.5,308.5,248.0,316.5,249.0,324.5,252.5,332.5,262.5,340.5,271.5,348.5" stroke="black" stroke-width="2" fill="none" />
<polyline points="266.0,346.0,274.0,345.0,282.0,344.0,290.5,344.0,299.0,344.0,307.0,343.5" stroke="black" stroke-width="2" fill="none" />
<polyline points="300.0,338.0,308.5,338.0,316.5,337.5" stroke="black" stroke-width="2" fill="none" />
<polyline points="325.0,346.0,332.5,344.5" stroke="black" stroke-width="2" fill="none" />
<polyline points="339.5,339.5,331.5,347.0,323.5,354.5,315.5,362.0,308.0,369.5,299.5,376.5,291.0,383.5" stroke="black" stroke-width="2" fill="none" />
<polyline points="316.0,386.5,324.5,379.5,332.5,372.5,340.5,365.0" stroke="black" stroke-width="2" fill="none" />
<polyline points="342.5,371.0,334.0,378.5,325.5,386.5" stroke="black" stroke-width="2" fill="none" />
<polyline points="339.5,388.0,347.5,380.5,355.5,373.0" stroke="black" stroke-width="2" fill="none" />
<polyline points="357.0,363.5,349.0,371.0,340.5,378.5,332.0,386.0" stroke="black" stroke-width="2" fill="none" />
<polyline points="307.5,386.0,315.5,379.0,324.0,371.5,332.0,363.5,340.0,356.0" stroke="black" stroke-width="2" fill="none" />
<polyline points="333.0,355.0,325.5,362.5,317.0,370.0,309.0,377.5,301.0,385.5" stroke="black" stroke-width="2" fill="none" />
<polyline points="283.0,384.0,291.0,376.5,299.5,369.5,307.0,362.0,315.0,354.0,323.0,346.5,331.5,339.5,339.5,332.0" stroke="black" stroke-width="2" fill="none" />
<polyline points="339.5,328.0,331.5,328.5,323.5,328.0,316.0,328.5,308.0,329.0,300.0,329.0" stroke="black" stroke-width="2" fill="none" />
<polyline points="289.5,322.0,297.5,321.5,306.0,321.0,314.5,320.5,324.0,320.5,332.5,320.0" stroke="black" stroke-width="2" fill="none" />
<polyline points="332.5,318.5,324.5,325.5,316.0,332.5,308.0,339.0,300.0,346.0,292.5,353.0,285.0,360.5,277.0,368.0,269.0,375.5,261.0,383.5" stroke="black" stroke-width="2" fill="none" />
<polyline points="260.0,383.5,268.0,383.0,276.0,382.5,284.0,382.0,291.5,382.0,299.5,382.0,307.5,382.0,315.5,382.0,323.5,382.0,331.5,381.5" stroke="black" stroke-width="2" fill="none" />
<polyline points="332.5,362.0,325.0,362.0,317.0,362.5" stroke="black" stroke-width="2" fill="none" />
<polyline points="324.0,352.0,332.0,352.0" stroke="black" stroke-width="2" fill="none" />
<polyline points="350.0,361.0,358.0,353.0" stroke="black" stroke-width="2" fill="none" />
<polyline points="356.0,346.5,347.5,354.0" stroke="black" stroke-width="2" fill="none" />
<polyline points="339.0,373.5,331.5,374.0,324.0,374.0,316.0,374.0,308.0,374.5,300.0,375.0,292.0,375.5,284.0,376.0,276.0,376.5,268.5,377.0,260.5,378.0" stroke="black" stroke-width="2" fill="none" />
<polyline points="269.0,383.5,277.0,376.5,284.5,369.5,292.5,362.5,300.5,354.5,308.0,347.0,315.5,339.5,323.5,332.5,331.5,325.5" stroke="black" stroke-width="2" fill="none" />
<polyline points="338.0,321.5,355.0,329.5" stroke="black" stroke-width="2" fill="none" />
<polyline points="363.0,324.5,355.0,325.0,347.0,325.0,339.0,325.0,331.0,325.5,323.0,326.0,315.0,326.0,306.5,327.0,299.0,327.5,291.0,328.5,283.5,329.0,276.0,330.0,268.5,331.0,260.5,331.0,252.5,331.5,244.5,331.5,237.0,332.5,229.0,333.0" stroke="black" stroke-width="2" fill="none" />
<polyline points="235.0,332.5,243.0,324.5,250.5,317.5,258.5,310.0,267.0,301.5,275.0,293.5,283.0,286.0,291.0,278.5,299.0,271.0,307.5,264.0,316.0,256.5,324.0,249.0,332.0,241.5,340.0,234.0,349.0,226.5,357.0,219.0" stroke="black" stroke-width="2" fill="none" />
<polyline points="356.5,226.0,348.5,233.0,340.5,240.5,332.5,248.0,324.5,256.0,316.5,264.0,308.0,271.5,299.5,279.5,290.5,288.0,282.0,296.0,274.0,303.5,266.0,311.0,258.5,318.5,251.0,325.5,242.5,332.5,234.5,340.0,226.5,347.5,218.0,355.0,209.5,362.5,201.0,370.5,193.0,378.0" stroke="black" stroke-width="2" fill="none" />
<polyline points="202.5,377.5,210.5,371.0,218.5,364.0,226.5,357.0,234.5,350.0,242.0,342.5,250.0,335.0,258.0,327.5,266.0,319.5,274.5,311.5,283.0,304.5,291.0,296.5,299.5,288.5,307.5,280.5,315.5,273.0,323.5,265.0,332.0,257.0,340.0,249.0,348.0,241.0,355.5,233.5" stroke="black" stroke-width="2" fill="none" />
<polyline points="355.0,241.5,347.0,249.0,339.0,256.5,330.5,264.5,321.5,272.0,313.5,280.5,305.0,287.5,297.5,295.5,289.5,303.0,281.5,311.0,274.0,318.5,266.0,325.5,258.0,333.0,250.0,340.5,242.0,348.5,234.0,356.0,227.0,363.0,219.5,370.5,212.0,378.0" stroke="black" stroke-width="2" fill="none" />
<polyline points="227.5,380.0,236.0,372.5,244.0,365.0,252.0,357.5,260.0,350.0,268.0,342.0,276.0,334.5,284.0,327.5,292.5,320.0,300.5,312.5,308.5,305.0,316.5,297.5,323.5,290.0,331.0,282.5,338.5,275.0,346.0,267.5" stroke="black" stroke-width="2" fill="none" />
<polyline points="349.0,258.0,341.0,266.0,333.0,273.5,325.0,281.5,316.5,289.5,308.5,297.5,300.0,305.0,291.5,312.5,283.5,320.0,276.0,327.5,268.0,335.0,260.0,342.5,252.0,350.0,243.5,357.5,235.0,365.0,226.5,373.0,219.0,380.0" stroke="black" stroke-width="2" fill="none" />
<polyline points="237.0,381.5,245.0,373.5,253.0,366.0,261.5,358.5,269.0,351.0,277.0,343.0,285.0,335.0,292.5,327.5,300.0,320.0,307.5,312.5,315.0,305.5,322.5,298.0,330.0,290.5,338.0,283.5" stroke="black" stroke-width="2" fill="none" />
<polyline points="329.0,299.0,321.0,307.0,313.5,314.5,305.5,322.5,297.0,330.5,289.0,338.0,281.5,346.0,274.0,353.5,266.5,361.0,259.5,369.0,251.5,376.5,243.5,383.5" stroke="black" stroke-width="2" fill="none" />
<polyline points="252.5,382.5,260.5,375.0,268.5,368.0,276.0,361.0,283.0,354.0,290.5,346.5,299.0,339.0,307.0,331.5,315.0,323.5,323.0,316.0,331.0,308.5" stroke="black" stroke-width="2" fill="none" />
<polyline points="331.5,313.0,339.0,321.0,347.0,326.0,355.0,328.5,363.0,331.5,370.5,333.0,378.0,334.0,386.0,337.5,393.5,339.5,401.5,341.5,409.0,342.0,417.0,344.5,425.0,348.5,433.5,353.0,441.5,357.0,450.0,359.0,458.0,363.0,466.0,377.0" stroke="black" stroke-width="2" fill="none" />
<polyline points="470.0,359.0,462.0,360.0,453.5,360.5,445.0,361.5,436.5,362.0,428.0,362.5,420.0,364.0,412.5,365.0,405.0,366.0,397.0,366.5,389.5,367.0,381.5,367.5,373.0,367.5,365.0,368.5,356.5,369.0,348.5,370.0,340.0,370.5,330.5,370.5,322.0,371.0,313.5,371.5,305.5,372.0,297.5,372.0,290.0,372.5,282.5,373.0,275.5,373.5,268.0,375.0,260.5,375.5,253.0,376.5,245.0,377.0,237.5,377.5,229.5,378.0,221.0,378.5,213.0,378.5,205.0,378.5,197.5,378.5,189.0,378.5,180.5,378.5,171.5,379.0,163.0,379.5,154.5,380.0,147.0,381.0" stroke="black" stroke-width="2" fill="none" />
<polyline points="156.0,374.0,164.0,373.5,171.5,373.0,179.5,373.0,188.0,372.5,195.5,371.5,203.5,371.0,211.5,370.5,220.0,369.5,228.5,369.0,236.5,369.0,244.5,368.0,252.5,368.0,260.5,367.5,268.5,367.0,276.5,366.0,284.5,366.0,292.5,365.0,300.5,364.5,308.5,364.0,316.0,363.0,324.0,363.0,332.0,362.5,339.5,362.0,347.5,362.5,355.5,362.0,363.0,361.5,371.0,361.0,379.5,361.0,387.5,360.0,395.5,359.0,403.5,358.5,411.5,358.5,419.5,358.0,427.5,357.0,435.5,356.5,444.0,355.5,452.0,355.5,460.0,355.0" stroke="black" stroke-width="2" fill="none" />
<polyline points="459.5,349.0,451.0,350.0,442.5,350.5,434.5,351.0,426.5,351.0,418.5,351.0,411.0,351.5,403.5,351.5,395.0,352.5,387.0,353.0,379.5,353.5,372.0,354.0,364.5,354.0,357.0,354.5,348.5,355.5,340.5,355.5,332.5,356.0,324.0,356.0,316.5,357.0,308.5,357.0,300.5,357.5,292.0,357.5,283.5,357.5,275.0,358.0,267.0,358.5,259.0,359.5,251.0,360.0,243.0,360.5,235.0,361.0,227.0,362.0,219.0,363.0,211.5,363.0,203.5,363.0,195.5,364.0,187.0,365.0,179.5,366.0,171.5,366.5,164.0,367.0" stroke="black" stroke-width="2" fill="none" />
<polyline points="166.5,366.5,174.5,376.5" stroke="black" stroke-width="2" fill="none" />
<polyline points="172.0,385.5,179.5,378.0,187.0,370.5,195.0,362.5,203.5,355.5" stroke="black" stroke-width="2" fill="none" />
<polyline points="208.5,351.0,216.5,350.0,225.5,349.0,233.5,348.5,241.5,348.0,250.0,347.5,258.5,346.5,266.5,346.0,275.0,346.0,283.0,346.0,291.0,346.0,299.5,345.0,307.5,344.0,315.5,343.5,324.5,342.5,332.5,341.5,340.5,341.0,348.0,341.0,355.5,340.5,364.0,339.5" stroke="black" stroke-width="2" fill="none" />
<polyline points="372.5,350.0,380.5,349.5,388.0,349.0,395.5,348.5,403.5,348.0,411.5,347.5,419.5,347.0,427.0,347.0" stroke="black" stroke-width="2" fill="none" />
<polyline points="432.0,353.0,418.0,345.0" stroke="black" stroke-width="2" fill="none" />
<polyline points="409.0,356.0,417.0,352.0,409.0,355.5,412.0,363.5,410.5,371.0,412.0,379.0" stroke="black" stroke-width="2" fill="none" />
<polyline points="412.5,380.0,404.5,387.5" stroke="black" stroke-width="2" fill="none" />
<polyline points="404.5,378.5,412.5,371.5" stroke="black" stroke-width="2" fill="none" />
<polyline points="404.5,364.0,404.5,372.0,405.0,380.0" stroke="black" stroke-width="2" fill="none" />
<polyline points="395.5,373.5,387.5,380.5" stroke="black" stroke-width="2" fill="none" />
<polyline points="378.5,380.0,387.0,372.5,395.0,365.0" stroke="black" stroke-width="2" fill="none" />
<polyline points="386.0,363.5,378.0,371.0" stroke="black" stroke-width="2" fill="none" />
<polyline points="379.5,364.5,387.0,357.0" stroke="black" stroke-width="2" fill="none" />
<polyline points="389.0,361.5,381.0,353.0,372.5,354.5" stroke="black" stroke-width="2" fill="none" />
<polyline points="372.5,355.0,380.5,366.0" stroke="black" stroke-width="2" fill="none" />
<polyline points="386.5,359.5,378.5,351.5" stroke="black" stroke-width="2" fill="none" />
<polyline points="374.5,349.5,375.5,357.5,381.0,366.0" stroke="black" stroke-width="2" fill="none" />
<polyline points="395.0,349.0,403.5,350.0,411.5,347.5,419.5,352.5" stroke="black" stroke-width="2" fill="none" />
<polyline points="431.0,357.5,442.0,365.5,437.5,373.0,431.5,381.5,431.0,381.5,439.0,369.5" stroke="black" stroke-width="2" fill="none" />
<polyline points="440.0,362.5,432.0,357.5" stroke="black" stroke-width="2" fill="none" />
<polyline points="444.0,341.5,436.0,342.0,428.0,342.5,420.0,343.0,412.0,344.0,404.0,345.0,396.5,345.5,388.0,346.0,380.5,346.5,372.0,347.5,364.5,348.0,357.0,348.0,349.0,348.5,341.0,348.5,332.5,349.5,324.5,350.0,315.5,350.5,307.0,351.5,299.0,351.5,290.5,352.0,282.5,352.5,274.5,353.5,266.0,354.0,258.5,354.5,251.0,355.0,243.0,355.5,234.5,355.5,226.5,356.0,218.5,356.5,210.5,357.5,202.5,358.0,194.5,358.0,187.0,359.0" stroke="black" stroke-width="2" fill="none" />
<polyline points="190.0,362.5,182.0,369.5,174.0,377.0,165.5,384.5" stroke="black" stroke-width="2" fill="none" />
<polyline points="164.5,377.5,172.5,369.5,180.5,362.0" stroke="black" stroke-width="2" fill="none" />
<polyline points="174.0,366.5,182.0,382.5" stroke="black" stroke-width="2" fill="none" />
<polyline points="189.0,384.5,197.0,377.0,205.0,369.5,213.0,362.5,221.0,356.0,229.0,348.5" stroke="black" stroke-width="2" fill="none" />
<polyline points="235.0,344.5,243.5,344.5,251.5,343.5" stroke="black" stroke-width="2" fill="none" />
<polyline points="260.5,339.5,268.0,339.0,276.0,338.0,284.0,337.0,292.5,336.5" stroke="black" stroke-width="2" fill="none" />
<polyline points="268.0,327.0,260.5,328.0,252.5,328.5" stroke="black" stroke-width="2" fill="none" />
<polyline points="248.5,325.5,256.5,333.5,264.5,341.0,272.5,348.0" stroke="black" stroke-width="2" fill="none" />
<polyline points="252.0,368.5,260.0,368.0,268.0,367.5,275.5,367.0,283.0,366.5,291.0,366.0,299.0,365.5,307.5,365.0,315.5,364.5,323.5,363.5" stroke="black" stroke-width="2" fill="none" />
<polyline points="300.0,357.0,292.0,358.0,284.0,358.5,276.0,359.0,268.0,360.0,260.0,361.0,251.5,362.0,243.5,362.5" stroke="black" stroke-width="2" fill="none" />
<polyline points="244.0,355.0,252.0,354.0,259.5,353.0,267.0,352.0,275.0,351.5,283.5,351.0,291.5,350.0,300.0,349.0" stroke="black" stroke-width="2" fill="none" />
<polyline points="276.5,383.0,285.0,375.5,292.5,368.0,300.5,360.5,308.0,353.5,315.5,346.5,323.0,339.0,331.5,332.0,339.5,325.0" stroke="black" stroke-width="2" fill="none" />
<polyline points="343.5,328.5,349.5,336.5,348.5,344.5,348.5,352.0,347.5,360.0,345.0,368.0,345.0,376.0,344.5,384.0" stroke="black" stroke-width="2" fill="none" />
<polyline points="348.0,378.0,350.5,370.5,352.5,362.5,354.0,355.0,354.0,347.0,354.5,339.0,345.0,329.0" stroke="black" stroke-width="2" fill="none" />
<polyline points="325.5,308.5,317.0,309.0,309.0,309.5,300.5,310.0,292.5,311.0,284.5,311.0,276.0,311.5,267.5,312.0,259.0,312.5,251.0,313.5" stroke="black" stroke-width="2" fill="none" />
<polyline points="252.0,308.0,260.0,300.5,268.0,293.0,275.5,285.5,284.0,278.0,292.0,270.0,300.5,262.5,308.5,255.5,316.5,247.5,325.0,240.5,333.5,232.5,341.5,225.0,349.5,217.0,358.0,209.5" stroke="black" stroke-width="2" fill="none" />
<polyline points="356.0,203.5,348.5,210.5,340.5,217.5,332.5,224.5,324.0,231.5,315.5,239.0,307.0,246.5,299.0,254.0,291.5,261.5,283.5,269.5,275.5,277.0,267.5,284.5,259.0,292.5,250.5,300.0" stroke="black" stroke-width="2" fill="none" />
<polyline points="252.5,304.0,260.0,303.5,267.5,303.5,275.5,303.5,283.5,303.0,292.0,303.0,300.5,302.0,308.5,302.0,317.0,302.0,325.0,302.0,333.0,301.5" stroke="black" stroke-width="2" fill="none" />
<polyline points="333.0,302.5,325.5,302.5,317.5,303.0,309.5,303.5,301.5,304.5,293.0,304.5,285.0,305.5,277.0,306.5,268.5,307.0,260.0,307.5,251.5,307.5,243.0,307.5,234.5,308.0,226.0,309.0,217.5,309.0" stroke="black" stroke-width="2" fill="none" />
<polyline points="216.5,312.0,224.5,323.0,232.5,334.0" stroke="black" stroke-width="2" fill="none" />
<polyline points="236.0,336.5,244.0,336.0" stroke="black" stroke-width="2" fill="none" />
<polyline points="235.5,329.5,243.5,322.0" stroke="black" stroke-width="2" fill="none" />
<polyline points="243.0,315.5,235.0,323.0,227.5,330.0" stroke="black" stroke-width="2" fill="none" />
<polyline points="226.5,326.5,234.5,325.5,242.5,325.5,250.5,324.5,259.0,323.5,267.0,322.5,275.5,321.5,284.0,320.5,292.5,319.5,300.0,319.0,308.0,318.5,316.0,318.0,324.0,317.5,332.0,317.0,339.5,317.0,347.5,317.0" stroke="black" stroke-width="2" fill="none" />
<polyline points="339.5,310.0,332.0,310.5,324.5,311.5,316.5,312.0,308.5,312.0,300.5,312.5,292.5,313.0,285.0,313.0,277.0,313.5,268.5,314.0,260.5,314.5,252.5,315.0,244.0,314.5,235.5,314.5,226.5,314.5,218.0,315.0" stroke="black" stroke-width="2" fill="none" />
<polyline points="219.5,316.0,227.5,308.5" stroke="black" stroke-width="2" fill="none" />
<polyline points="229.5,314.0,237.5,306.5" stroke="black" stroke-width="2" fill="none" />
<polyline points="237.0,300.5,244.5,300.5,252.5,300.0,260.0,300.0,268.0,300.0,276.0,300.0,283.5,300.0,291.0,299.0,299.0,299.0,307.5,298.5,315.5,298.5,324.0,298.0,332.0,297.5" stroke="black" stroke-width="2" fill="none" />
<polyline points="330.5,302.5,338.5,285.5,346.5,274.0" stroke="black" stroke-width="2" fill="none" />
<polyline points="346.5,249.0,338.5,249.0" stroke="black" stroke-width="2" fill="none" />
<polyline points="337.0,241.5,345.0,241.5" stroke="black" stroke-width="2" fill="none" />
<polyline points="338.0,218.5,346.5,218.0,354.5,217.5" stroke="black" stroke-width="2" fill="none" />
<polyline points="356.0,210.5,348.0,211.0,339.5,211.5" stroke="black" stroke-width="2" fill="none" />
<polyline points="339.0,201.5,347.0,201.5,355.0,202.0" stroke="black" stroke-width="2" fill="none" />
<polyline points="355.5,195.0,347.5,202.5,339.0,210.0,331.0,217.5,322.5,225.5,314.0,232.5,306.0,239.5,298.0,246.5,290.0,254.0,282.5,262.0,274.5,269.5,267.0,276.5,259.0,284.0,251.0,292.0,243.0,299.5" stroke="black" stroke-width="2" fill="none" />
<polyline points="244.5,298.0,252.0,298.0,260.0,297.5,268.0,297.0,275.5,296.5,283.5,295.0,291.5,294.5,300.0,294.0,308.0,292.5,316.5,291.5,324.5,291.0,332.5,290.5" stroke="black" stroke-width="2" fill="none" />
<polyline points="331.0,238.5,322.5,239.0,314.5,240.0,306.0,241.0,297.5,241.5,289.5,241.5" stroke="black" stroke-width="2" fill="none" />
<polyline points="284.5,238.0,276.5,238.0,268.5,238.0,260.5,239.0,253.0,239.5,244.5,239.5,236.0,240.0,228.0,240.5" stroke="black" stroke-width="2" fill="none" />
<polyline points="228.0,244.0,236.0,243.5,244.0,243.0,252.0,242.5,260.0,242.0,268.0,241.5,276.5,241.0,284.0,240.5,291.5,240.5,299.0,240.0,306.5,240.0,314.5,239.0,323.0,239.0,331.0,238.0,339.0,236.5,347.0,236.0,355.5,236.0" stroke="black" stroke-width="2" fill="none" />
<polyline points="354.5,188.0,347.0,195.5,339.5,202.5,332.0,209.5,324.0,216.5,316.0,223.5,307.5,230.5,299.0,238.0,290.5,246.0,282.0,253.5,274.0,261.5,265.5,269.0,258.0,276.5,250.0,284.0,241.5,291.0" stroke="black" stroke-width="2" fill="none" />
<polyline points="237.5,293.0,245.0,292.5,253.0,292.0,261.0,292.0,268.5,291.5,276.5,291.5,284.0,291.0,291.0,290.5,299.0,290.0,307.0,289.5,315.0,288.5,323.0,288.5,331.0,289.0,338.5,289.0" stroke="black" stroke-width="2" fill="none" />
<polyline points="338.0,284.5,329.5,285.0,321.0,285.5,312.5,285.5,304.5,286.0,297.5,286.5,290.0,287.0,283.0,287.0,275.5,287.0,268.0,287.5,260.5,288.5,252.5,289.0,244.5,289.0,236.5,289.5" stroke="black" stroke-width="2" fill="none" />
<polyline points="235.5,288.5,243.5,301.5" stroke="black" stroke-width="2" fill="none" />
<polyline points="237.0,315.0,229.0,322.5" stroke="black" stroke-width="2" fill="none" />
<polyline points="226.5,321.5,234.5,321.0" stroke="black" stroke-width="2" fill="none" />
<polyline points="250.5,321.0,258.5,320.0,267.0,320.0" stroke="black" stroke-width="2" fill="none" />
<polyline points="275.0,314.0,288.5,322.0,297.5,329.5" stroke="black" stroke-width="2" fill="none" />
<polyline points="292.5,322.0,284.5,317.0,276.5,313.0" stroke="black" stroke-width="2" fill="none" />
<polyline points="242.0,286.5,250.0,279.0,258.0,271.5,266.0,263.5,274.0,256.0,282.5,248.5,290.5,240.5,299.0,232.5,307.5,224.5,315.5,216.5,323.5,209.5,332.0,202.0,340.0,195.5,348.5,188.0" stroke="black" stroke-width="2" fill="none" />
<polyline points="339.0,185.0,331.0,192.5,323.5,200.5,315.5,208.5,307.5,216.0,300.0,223.5,292.0,230.5,284.5,238.0,277.0,245.5,269.0,253.0,261.5,260.5,253.0,268.0,244.5,276.0,236.0,284.5" stroke="black" stroke-width="2" fill="none" />
<polyline points="237.5,285.5,245.5,284.5,253.5,284.0,261.5,283.5,269.0,283.5,277.0,283.0,284.5,283.0,291.5,282.0,299.0,282.0,307.0,282.5,315.0,282.0,323.0,281.5,330.5,281.0,338.0,280.0" stroke="black" stroke-width="2" fill="none" />
<polyline points="341.0,274.0,332.5,275.0,324.0,275.0,316.0,275.0,308.0,276.0,300.0,277.5,292.0,278.0,284.0,278.5,276.0,279.5,268.0,280.0,261.0,280.0,253.5,280.0,245.5,280.5,237.5,281.5" stroke="black" stroke-width="2" fill="none" />
<polyline points="237.0,278.0,245.0,278.0,253.0,278.0,260.5,277.0,268.0,276.5,275.5,276.0,284.0,275.0,292.5,274.5,300.5,273.5,309.0,273.0,317.0,273.0,324.5,271.5,332.5,271.0,341.0,270.0,349.0,269.5" stroke="black" stroke-width="2" fill="none" />
<polyline points="348.5,266.5,340.5,267.0,332.0,267.0,324.0,267.5,316.0,268.5,308.0,268.5,299.5,269.5,292.0,270.0,284.5,270.0,276.5,270.5,268.5,271.5,259.5,272.5,251.5,273.0,243.5,274.0,235.0,275.0" stroke="black" stroke-width="2" fill="none" />
<polyline points="235.5,276.5,243.5,269.0,251.5,262.0,260.0,255.0,268.0,247.5,275.5,240.0,283.5,232.5,292.5,225.0,300.0,217.5,308.5,209.5,316.5,202.0,325.0,194.5,332.5,187.0,340.5,179.0" stroke="black" stroke-width="2" fill="none" />
<polyline points="332.5,179.5,324.0,187.5,316.0,194.5,308.0,201.5,300.0,209.0,292.0,216.5,283.5,224.5,275.5,232.5,267.5,240.5,259.5,248.5,251.0,256.0,243.0,263.5,234.5,271.0" stroke="black" stroke-width="2" fill="none" />
<polyline points="234.0,267.0,242.5,266.5,250.5,265.5,258.5,265.0,267.0,264.5,275.0,264.5,283.5,263.5,292.5,263.0,300.5,262.5,309.0,261.5,317.0,261.5,325.0,261.0,332.5,261.0,340.0,260.5,348.5,259.5" stroke="black" stroke-width="2" fill="none" />
<polyline points="345.5,194.0,337.0,194.5,328.5,194.5" stroke="black" stroke-width="2" fill="none" />
<polyline points="331.0,187.0,339.0,186.5" stroke="black" stroke-width="2" fill="none" />
<polyline points="333.5,170.5,326.0,178.5,317.5,186.5,308.5,194.5,300.0,202.5,291.5,210.5,282.5,217.5,274.0,224.5,266.0,231.5,258.0,239.0,250.0,246.5,242.0,254.0,234.0,262.0" stroke="black" stroke-width="2" fill="none" />
<polyline points="235.0,257.5,243.0,257.0,251.0,256.5,259.0,255.5,267.0,255.0,275.5,254.5,284.0,254.5,292.5,254.5,300.5,254.0,308.5,254.0,316.0,253.0,324.5,253.0,332.5,252.5,340.5,252.5,349.0,251.5" stroke="black" stroke-width="2" fill="none" />
<polyline points="347.5,227.5,339.5,227.0,332.0,227.5,324.0,228.0,316.0,228.0,308.5,229.0,300.5,229.5,292.5,230.0,284.5,231.0,276.5,231.0,268.5,232.0,260.5,232.5,252.5,233.0,244.5,233.0,236.5,234.0" stroke="black" stroke-width="2" fill="none" />
<polyline points="230.0,236.0,238.0,228.0,246.0,221.0,253.5,213.5,261.0,206.5,268.5,199.0,276.0,191.5,284.0,185.0,292.5,178.0,301.0,171.0,309.0,163.5,317.5,156.0" stroke="black" stroke-width="2" fill="none" />
<polyline points="316.0,158.0,308.5,157.5,300.5,157.5,292.5,158.5,284.5,159.5,276.5,160.5,269.0,161.0,261.0,162.0" stroke="black" stroke-width="2" fill="none" />
<polyline points="267.0,156.5,259.0,163.5,251.0,170.5,243.0,178.0,235.5,186.0,227.0,193.5" stroke="black" stroke-width="2" fill="none" />
<polyline points="228.0,191.0,236.0,190.0,244.0,189.0,252.0,188.5,260.0,188.0,268.0,187.5,276.0,186.5,283.5,185.5,291.5,185.0,300.0,184.0,308.0,183.5,316.0,183.0,324.0,183.5,332.0,183.5,339.5,182.5,347.5,182.5,355.0,182.0" stroke="black" stroke-width="2" fill="none" />
<polyline points="332.0,176.5,324.0,177.5" stroke="black" stroke-width="2" fill="none" />
<polyline points="324.0,171.5,316.0,179.0,308.0,186.5,300.5,194.0,293.0,202.0,285.0,209.5,276.5,217.0,268.0,225.0,260.0,233.0,251.5,240.5,243.0,248.0,235.5,255.5" stroke="black" stroke-width="2" fill="none" />
<polyline points="230.0,254.0,237.5,253.5,245.5,252.5,253.0,251.5,260.5,251.5,268.0,251.0,275.5,250.5,284.0,250.0,292.0,249.0,300.5,248.0,308.0,247.5,316.0,247.0,324.0,246.5,331.5,246.0,339.0,245.5,347.0,245.0,355.0,244.5" stroke="black" stroke-width="2" fill="none" />
<polyline points="348.5,263.0,340.5,263.5,332.0,264.0,324.0,265.0,316.0,266.0,308.5,266.5,300.5,267.0,292.0,267.0,284.0,267.5,276.0,268.0,268.0,267.5,259.5,268.0,251.0,268.0,243.0,268.0,234.5,268.5,226.0,269.5" stroke="black" stroke-width="2" fill="none" />
<polyline points="228.5,260.5,236.5,260.0,244.5,260.0,252.5,260.0,260.5,259.5,268.5,259.5,276.5,259.0,284.5,258.5,292.5,258.0,300.5,257.5,309.0,257.0,317.0,256.0,324.5,255.5,332.5,254.5,340.5,253.5,348.5,252.5,356.5,252.5" stroke="black" stroke-width="2" fill="none" />
<polyline points="324.0,242.0,316.5,243.0,308.5,243.5,300.5,244.0,292.5,244.0,284.5,244.5,276.5,245.5,268.5,246.5,260.5,246.5,253.0,247.5,245.0,248.5,237.0,249.0,229.0,249.5" stroke="black" stroke-width="2" fill="none" />
<polyline points="229.0,246.0,237.0,238.5,244.5,231.0,252.0,224.0,260.0,216.5,268.0,208.5,275.5,201.5,283.5,194.0,291.5,187.0,299.5,179.5,307.5,171.5,315.5,164.0" stroke="black" stroke-width="2" fill="none" />
<polyline points="313.5,170.0,324.0,178.0,330.0,186.0" stroke="black" stroke-width="2" fill="none" />
<polyline points="315.0,172.5,323.5,164.5" stroke="black" stroke-width="2" fill="none" />
<polyline points="323.5,166.5,315.5,167.0,307.5,167.5,300.0,167.5,291.5,168.0,283.5,168.0,275.5,168.5,267.0,169.0,258.5,170.0,250.5,170.5" stroke="black" stroke-width="2" fill="none" />
<polyline points="245.0,165.5,252.5,165.0,259.5,164.5,267.0,164.0,275.0,163.0,282.5,162.5,290.5,162.0,298.5,161.5,306.5,161.0,314.0,160.0,322.5,160.0,330.5,160.0" stroke="black" stroke-width="2" fill="none" />
<polyline points="314.5,154.0,306.0,154.5,298.0,155.0,289.5,155.0,282.0,156.0,274.5,156.5,266.5,157.0,258.0,157.5,249.5,157.5" stroke="black" stroke-width="2" fill="none" />
<polyline points="266.5,148.0,275.0,147.0,283.0,147.0,291.0,146.5,299.0,146.0" stroke="black" stroke-width="2" fill="none" />
<polyline points="298.5,155.5,290.5,163.0,282.5,170.5,274.5,178.0,266.0,185.5,258.5,192.5,250.5,200.0,243.0,207.0,235.0,214.5,227.5,221.5" stroke="black" stroke-width="2" fill="none" />
<polyline points="227.0,223.0,235.0,222.0,243.0,221.0,251.0,220.5,259.5,220.0,267.5,220.0,275.5,219.5,283.5,219.0,291.5,218.5,299.5,218.0,307.5,217.5,315.5,217.0,324.0,216.0,332.0,215.0,340.0,214.0,348.0,213.5,356.0,213.0" stroke="black" stroke-width="2" fill="none" />
<polyline points="307.5,181.0,299.0,188.0,291.0,195.5,283.5,202.0,275.5,209.0,268.0,216.0,260.0,223.5,251.5,230.5,243.0,238.0,235.5,245.5,228.0,253.5" stroke="black" stroke-width="2" fill="none" />
<polyline points="228.5,236.5,236.5,236.0,244.5,235.0,252.5,235.0,260.5,235.0,268.5,234.5,276.0,234.0,284.0,233.0,292.0,232.5,300.5,232.0,308.5,231.0,316.0,230.5,323.5,230.5,331.5,230.5,339.5,230.0,348.0,230.0,356.5,229.0" stroke="black" stroke-width="2" fill="none" />
<polyline points="298.0,181.5,290.5,182.0,283.5,182.5,276.0,184.0,268.5,184.5,261.0,185.5,253.0,186.0,245.5,186.5,237.5,187.0" stroke="black" stroke-width="2" fill="none" />
<polyline points="227.5,182.0,235.5,181.5,244.0,180.5,252.0,180.5,259.5,180.5,267.5,180.0,276.0,178.5,284.0,177.5,292.5,177.0,301.0,176.5,309.0,175.5,316.5,175.5,324.5,175.0,332.0,175.0,340.0,175.0,348.0,175.0" stroke="black" stroke-width="2" fill="none" />
<polyline points="338.5,167.0,330.0,168.0,321.5,168.5,313.5,168.5,306.0,169.5,299.0,170.0,291.5,170.5,283.5,170.5,276.0,171.0,268.5,172.0,261.0,173.0,253.0,173.5,245.0,174.0,237.5,175.0" stroke="black" stroke-width="2" fill="none" />
<polyline points="244.5,178.0,252.0,177.0,259.5,177.0,267.5,176.5,275.5,176.0,283.0,176.0,291.0,174.5,299.0,174.0" stroke="black" stroke-width="2" fill="none" />
<polyline points="301.0,169.0,309.0,168.0,316.5,169.5,324.5,175.5" stroke="black" stroke-width="2" fill="none" />
<polyline points="307.0,187.5,299.5,188.5,291.5,189.5,283.5,190.0,276.0,190.5,268.0,191.0,260.5,192.0,253.0,193.0,245.0,194.0,237.0,195.0,229.5,195.0" stroke="black" stroke-width="2" fill="none" />
<polyline points="229.5,198.5,237.5,191.0,245.0,184.0,253.0,176.5,261.0,170.0,269.0,163.0,276.5,156.5,284.0,149.0" stroke="black" stroke-width="2" fill="none" />
<polyline points="283.0,156.5,275.5,164.0,267.5,171.0,260.0,178.5,253.0,186.0,245.0,193.0,237.0,200.5,229.5,208.0" stroke="black" stroke-width="2" fill="none" />
<polyline points="228.5,208.5,236.5,208.0,244.0,207.5,251.5,207.5,259.0,207.5,267.0,207.0,275.0,206.5,283.5,206.5,292.0,206.0,300.5,205.0,308.5,205.0,316.0,204.0" stroke="black" stroke-width="2" fill="none" />
<polyline points="356.0,222.5,347.5,223.0,339.5,223.0,331.5,223.5,323.0,224.0,314.5,225.0,306.5,225.5,298.5,225.5,290.0,226.0,282.5,227.0,274.5,228.0,266.5,228.5,259.5,229.0,252.0,229.5,244.5,230.0,236.0,230.0,228.0,230.0" stroke="black" stroke-width="2" fill="none" />
<polyline points="227.0,228.5,235.0,221.5,242.5,214.5,250.5,207.5,259.0,200.5,267.5,193.5,275.0,186.0,283.0,178.5,290.5,171.0,299.0,163.5,307.0,156.0" stroke="black" stroke-width="2" fill="none" />
<polyline points="311.5,153.5,321.5,161.5,332.0,169.5,337.0,177.5,350.5,185.5,356.0,193.5,356.0,201.5,357.0,209.5,356.5,217.0,354.5,225.0,352.5,233.5,353.0,241.0,352.0,249.5,351.5,257.5,349.5,265.5,347.5,273.0,340.5,281.5,338.0,289.0,335.0,297.0,330.5,305.0,330.5,313.0,336.5,321.0,337.5,329.0,336.0,337.0,334.0,345.5,332.0,354.0,336.0,361.5,337.0,348.0" stroke="black" stroke-width="2" fill="none" />
<polyline points="395.0,331.5,387.0,332.0,378.5,332.5,370.5,333.5,362.5,334.0,355.0,334.0,347.0,334.5,339.0,335.0,330.5,335.0,322.0,335.0,314.0,336.0,306.0,337.0,298.0,337.0,290.0,337.0,282.5,337.5,275.5,338.0,268.0,338.5,260.5,339.0,252.5,339.5,244.0,340.0,236.0,340.0,228.0,340.5" stroke="black" stroke-width="2" fill="none" />
<polyline points="228.5,360.5,220.0,360.5" stroke="black" stroke-width="2" fill="none" />
<polyline points="211.0,356.0,203.0,364.0,194.5,371.0,186.5,379.0,179.5,386.0" stroke="black" stroke-width="2" fill="none" />
<polyline points="173.0,381.0,165.0,370.0" stroke="black" stroke-width="2" fill="none" />
<polyline points="165.0,372.0,170.0,379.5" stroke="black" stroke-width="2" fill="none" />
<polyline points="173.5,377.0,167.5,368.5" stroke="black" stroke-width="2" fill="none" />
<polyline points="166.5,365.5,163.5,373.5,168.5,381.5" stroke="black" stroke-width="2" fill="none" />
<polyline points="180.5,383.5,176.5,375.0,172.5,366.5" stroke="black" stroke-width="2" fill="none" />
<polyline points="167.5,361.0,159.5,368.5,147.5,376.5,135.5,384.5,142.5,379.5,150.5,374.5,158.5,369.0,166.0,361.0,174.0,358.5,182.5,356.5,190.5,352.5,198.5,349.5,206.5,351.0,214.5,347.5,222.0,345.0,230.0,339.5" stroke="black" stroke-width="2" fill="none" />
<polyline points="215.5,305.5,223.5,299.5,231.5,301.5" stroke="black" stroke-width="2" fill="none" />
<polyline points="221.5,301.0,214.5,309.0,216.5,317.0,222.5,325.0,228.5,332.5,228.5,340.5,211.5,349.0" stroke="black" stroke-width="2" fill="none" />
<polyline points="229.0,227.0,236.5,227.0,244.0,226.5,251.5,226.0,259.5,225.0,267.0,224.5,274.5,224.0,282.5,223.0,290.0,222.0,297.5,221.5,305.5,220.5,314.0,220.5,322.5,220.0,330.5,219.5,338.0,219.0,345.5,218.0,354.0,218.0" stroke="black" stroke-width="2" fill="none" />
<polyline points="331.0,211.0,323.5,212.0,316.0,213.0,308.0,214.0,299.5,214.5,292.0,215.0,283.5,216.0,275.5,216.0,267.0,216.0,258.5,216.5,250.5,216.5,242.5,216.5,235.0,216.5,226.5,217.0" stroke="black" stroke-width="2" fill="none" />
<polyline points="228.5,214.0,236.5,206.5,244.0,199.0,252.0,191.5,259.5,184.5,267.5,177.5,275.5,170.5,283.5,163.0,292.0,155.5" stroke="black" stroke-width="2" fill="none" />
<polyline points="301.0,197.0,292.5,197.0,284.5,197.0,277.0,198.0,269.5,198.5,261.5,199.5,253.0,200.0,245.0,200.5,236.5,201.0,228.5,201.5" stroke="black" stroke-width="2" fill="none" />
<polyline points="222.0,197.0,230.0,181.0,238.0,171.0,246.0,163.0,253.5,154.5,262.0,150.5,269.5,147.5,277.5,146.0,285.5,147.0,293.5,148.5,302.0,150.5,309.5,151.5,317.5,157.5,325.5,162.5,333.0,169.0,341.5,179.5,349.0,183.0" stroke="black" stroke-width="2" fill="none" />
<polyline points="355.5,205.5,347.5,206.0,339.5,207.5,332.0,208.0,324.0,208.5,316.0,209.0,308.5,209.0,300.5,210.0,292.5,211.0,284.0,211.5,275.5,212.0,267.5,213.0,259.0,213.0,251.0,213.0,243.0,213.0,235.0,212.5,226.5,212.5" stroke="black" stroke-width="2" fill="none" />
<polyline points="218.5,206.5,226.5,206.0,234.5,205.0,242.5,204.0,251.0,203.0,259.0,202.5,267.5,202.5,276.5,202.0,284.5,201.0,293.0,200.5,301.5,200.5,309.5,199.5,317.5,199.0,325.0,199.0,332.0,199.0,340.0,198.5,348.0,197.5,356.0,197.0,364.0,196.5" stroke="black" stroke-width="2" fill="none" />
<polyline points="356.5,189.5,348.0,190.0,339.5,191.0,332.0,191.5,324.5,192.0,317.0,193.0,309.0,193.0,301.0,193.0,292.5,194.0,284.5,194.5,275.5,194.5,267.0,194.5,258.5,195.0,250.0,196.0,242.5,196.5,234.5,197.5,226.0,197.5,218.0,198.5" stroke="black" stroke-width="2" fill="none" />
<polyline points="279.5,236.0,280.5,234.0,281.5,242.0,294.5,246.0,296.0,244.0" stroke="black" stroke-width="2" fill="none" />
<polyline points="288.5,245.5,280.5,240.5" stroke="black" stroke-width="2" fill="none" />
<polyline points="453.5,361.0,461.0,369.5,465.0,377.0,470.0,385.0" stroke="black" stroke-width="2" fill="none" />
</svg>