<?xml version="1.0" standalone="no"?>
<!DOCTYPE svg PUBLIC "-//W3C//DTD SVG 20010904//EN"
 "http://www.w3.org/TR/2001/REC-SVG-20010904/DTD/svg10.dtd">
<svg version="1.0" xmlns="http://www.w3.org/2000/svg"
 width="300.000000pt" height="65.000000pt" viewBox="0 0 300.000000 65.000000"
 preserveAspectRatio="xMidYMid meet">
<metadata>
Created by potrace 1.10, written by Peter Selinger 2001-2011
</metadata>
<g transform="translate(0.000000,65.000000) scale(0.100000,-0.100000)"
fill="#000000" stroke="none">
<path d="M40 320 l0 -250 75 0 75 0 0 250 0 250 -75 0 -75 0 0 -250z m98 212
c10 -7 13 -56 12 -211 0 -112 -2 -207 -6 -212 -7 -12 -51 -11 -59 1 -4 6 -6
99 -6 207 0 176 2 199 17 210 21 15 25 16 42 5z"/>
<path d="M230 560 c0 -5 10 -10 23 -10 21 0 22 -3 19 -60 -3 -39 0 -60 7 -60
7 0 11 23 11 60 0 53 2 60 20 60 11 0 20 5 20 10 0 6 -22 10 -50 10 -27 0 -50
-4 -50 -10z"/>
<path d="M370 500 l0 -70 41 0 c24 0 38 4 34 10 -3 6 -17 10 -31 10 -17 0 -24
5 -24 20 0 16 7 20 30 20 17 0 30 5 30 10 0 6 -13 10 -30 10 -23 0 -30 4 -30
20 0 16 7 20 30 20 17 0 30 5 30 10 0 6 -18 10 -40 10 l-40 0 0 -70z"/>
<path d="M529 552 c-28 -23 -30 -73 -4 -102 24 -26 76 -26 100 0 16 18 16 20
2 20 -10 0 -17 -4 -17 -9 0 -13 -33 -19 -58 -10 -26 10 -38 50 -22 78 8 15 20
21 45 21 19 0 35 -4 35 -10 0 -5 8 -10 18 -10 14 1 13 4 -7 20 -29 25 -62 25
-92 2z"/>
<path d="M700 500 c0 -39 4 -69 9 -66 4 3 6 17 3 31 -4 23 -1 25 32 25 34 0
35 -1 30 -30 -4 -19 -2 -30 5 -30 7 0 11 25 11 70 0 45 -4 70 -11 70 -7 0 -9
-11 -5 -30 5 -29 4 -30 -30 -30 -33 0 -36 2 -32 25 3 14 1 28 -3 31 -5 3 -9
-27 -9 -66z"/>
<path d="M862 498 l1 -73 6 60 6 60 33 -57 c19 -32 38 -58 43 -58 5 0 9 32 9
70 0 43 -4 70 -11 70 -7 0 -8 -18 -4 -55 4 -30 5 -55 2 -55 -3 0 -21 25 -39
55 -18 30 -36 55 -40 55 -5 0 -7 -33 -6 -72z"/>
<path d="M1033 500 c0 -41 2 -58 4 -37 2 20 2 54 0 75 -2 20 -4 3 -4 -38z"/>
<path d="M1117 563 c-18 -17 -6 -53 24 -68 16 -9 28 -22 26 -28 -5 -17 -38
-21 -48 -6 -4 7 -11 10 -15 6 -11 -11 17 -37 41 -37 44 0 48 62 5 80 -16 7
-30 17 -30 22 0 15 32 21 40 7 12 -18 22 -7 14 15 -6 16 -44 22 -57 9z"/>
<path d="M1262 554 c-28 -20 -31 -83 -4 -107 25 -23 75 -21 97 3 21 24 17 25
-19 6 -35 -18 -65 -10 -78 20 -17 38 7 74 48 74 18 0 36 -4 39 -10 3 -5 11
-10 17 -10 6 0 3 9 -7 20 -22 24 -62 26 -93 4z"/>
<path d="M1430 500 c0 -45 4 -70 11 -70 7 0 10 12 7 30 -4 28 -3 30 30 30 32
0 33 -1 27 -30 -4 -19 -3 -30 4 -30 7 0 11 27 11 70 0 45 -4 70 -11 70 -7 0
-9 -11 -5 -30 5 -28 4 -30 -28 -30 -31 0 -32 2 -28 30 3 18 0 30 -7 30 -7 0
-11 -25 -11 -70z"/>
<path d="M1590 500 l0 -70 35 0 c19 0 35 5 35 10 0 6 -13 10 -30 10 -23 0 -30
4 -30 20 0 16 7 20 30 20 17 0 30 5 30 10 0 6 -13 10 -30 10 -23 0 -30 4 -30
20 0 16 7 20 30 20 17 0 30 5 30 10 0 6 -16 10 -35 10 l-35 0 0 -70z"/>
<path d="M1733 550 c-2 -19 4 -20 123 -20 l124 0 0 -230 c0 -223 1 -230 20
-230 19 0 20 7 20 230 l0 230 119 0 c110 0 119 1 124 20 5 20 0 20 -262 20
-260 0 -267 -1 -268 -20z"/>
<path d="M2440 455 l0 -115 -75 0 c-68 0 -75 -2 -75 -20 0 -18 7 -20 75 -20
l75 0 0 -115 c0 -108 1 -115 20 -115 19 0 19 8 19 250 0 242 0 250 -19 250
-19 0 -20 -7 -20 -115z"/>
<path d="M2510 320 l0 -250 75 0 75 0 0 250 0 250 -75 0 -75 0 0 -250z m105
208 c8 -8 8 -405 0 -417 -10 -17 -53 -13 -63 6 -11 21 -15 383 -4 399 12 19
53 26 67 12z"/>
<path d="M2687 551 c3 -11 13 -21 22 -21 33 0 119 -49 144 -81 52 -70 59 -167
17 -237 -26 -43 -95 -91 -141 -98 -25 -4 -39 -12 -42 -25 -12 -44 109 -6 171
54 54 52 76 103 76 177 0 123 -89 226 -212 246 -38 6 -40 5 -35 -15z"/>
<path d="M1810 285 l0 -215 70 0 70 0 0 215 0 215 -70 0 -70 0 0 -215z m104
169 c8 -20 8 -318 0 -338 -8 -21 -60 -21 -68 0 -8 21 -8 339 1 347 13 13 61 7
67 -9z"/>
<path d="M2120 285 l0 -215 70 0 70 0 0 215 0 215 -70 0 -70 0 0 -215z m108 6
c2 -133 -1 -176 -10 -183 -21 -13 -55 -9 -62 8 -8 21 -8 318 0 339 5 11 16 15
38 13 l31 -3 3 -174z"/>
<path d="M236 325 c1 -69 14 -105 14 -42 0 34 2 37 30 37 28 0 30 -3 30 -35 0
-19 5 -35 10 -35 6 0 10 30 10 70 0 40 -4 70 -10 70 -5 0 -10 -13 -10 -30 0
-27 -3 -30 -30 -30 -27 0 -30 3 -30 30 0 17 -4 30 -8 30 -4 0 -7 -29 -6 -65z"/>
<path d="M397 372 c-24 -27 -21 -74 6 -100 31 -29 62 -28 94 4 20 20 24 31 19
57 -3 18 -14 38 -23 45 -25 18 -77 15 -96 -6z m81 -8 c41 -28 22 -94 -28 -94
-40 0 -67 39 -49 72 22 41 42 47 77 22z"/>
<path d="M576 368 c-23 -32 -20 -65 9 -93 29 -30 66 -32 90 -5 10 11 13 20 7
20 -6 0 -14 -4 -17 -10 -9 -14 -58 -13 -73 2 -18 18 -14 63 6 81 23 21 41 21
64 0 10 -9 21 -13 26 -9 12 13 -30 36 -64 36 -23 0 -38 -7 -48 -22z"/>
<path d="M740 320 c0 -40 4 -70 10 -70 6 0 10 16 10 35 0 32 2 35 30 35 28 0
30 -3 30 -36 0 -21 4 -33 10 -29 6 3 10 35 10 71 0 36 -4 64 -10 64 -5 0 -10
-13 -10 -30 0 -27 -3 -30 -30 -30 -27 0 -30 3 -30 30 0 17 -4 30 -10 30 -6 0
-10 -30 -10 -70z"/>
<path d="M897 384 c-17 -17 -5 -50 23 -66 33 -19 38 -35 14 -45 -10 -4 -22 0
-29 10 -16 22 -27 10 -14 -14 11 -22 39 -25 57 -7 18 18 15 58 -5 65 -30 10
-42 24 -36 39 7 19 23 18 40 -3 13 -17 14 -17 11 2 -3 20 -46 33 -61 19z"/>
<path d="M1027 372 c-23 -25 -21 -78 3 -102 26 -26 62 -25 91 1 21 18 21 20 4
13 -53 -19 -73 -16 -91 10 -34 52 20 105 72 71 31 -20 46 -11 18 10 -27 20
-78 19 -97 -3z"/>
<path d="M1190 318 c0 -39 3 -68 8 -64 4 4 7 20 7 34 0 23 4 27 30 27 26 0 30
-4 30 -27 1 -15 4 -30 8 -34 4 -4 7 25 7 64 0 40 -4 72 -8 72 -5 0 -7 -13 -4
-30 4 -29 3 -30 -32 -30 -36 0 -37 1 -32 30 2 17 0 30 -5 30 -5 0 -9 -32 -9
-72z"/>
<path d="M1338 333 c4 -63 15 -83 42 -83 10 0 22 6 28 13 12 15 21 127 10 127
-4 0 -8 -21 -8 -47 0 -56 -10 -76 -36 -71 -16 3 -20 14 -22 61 -2 31 -6 57
-10 57 -4 0 -5 -26 -4 -57z"/>
<path d="M1480 320 l0 -70 30 0 c17 0 30 5 30 10 0 6 -12 10 -26 10 -27 0 -27
0 -21 60 4 37 3 60 -3 60 -6 0 -10 -31 -10 -70z"/>
<path d="M1590 320 l0 -70 35 0 c19 0 35 5 35 10 0 6 -13 10 -28 10 -24 0 -28
4 -27 23 1 18 7 21 28 19 15 -2 27 1 27 7 0 6 -10 11 -23 11 -13 0 -26 3 -30
6 -12 12 6 34 29 34 13 0 24 5 24 10 0 6 -16 10 -35 10 l-35 0 0 -70z"/>
<path d="M237 203 c-4 -3 -7 -35 -7 -70 l0 -63 38 0 c26 0 45 7 57 20 25 27
22 80 -6 102 -21 18 -69 24 -82 11z m77 -29 c32 -32 11 -84 -34 -84 -29 0 -30
1 -30 50 0 46 2 50 24 50 14 0 32 -7 40 -16z"/>
<path d="M390 140 l0 -70 35 0 c19 0 35 5 35 10 0 6 -13 10 -30 10 -23 0 -30
4 -30 20 0 16 7 20 30 20 17 0 30 5 30 10 0 6 -13 10 -30 10 -23 0 -30 4 -30
20 0 16 7 20 30 20 17 0 30 5 30 10 0 6 -16 10 -35 10 l-35 0 0 -70z"/>
<path d="M525 185 c-28 -27 -31 -45 -14 -78 16 -30 28 -37 66 -37 22 0 37 7
47 22 26 37 20 48 -24 48 -22 0 -40 -4 -40 -10 0 -5 14 -10 30 -10 36 0 39
-12 5 -30 -20 -11 -28 -10 -50 4 -27 18 -34 63 -13 84 15 15 61 15 76 0 6 -6
15 -8 19 -4 11 11 -27 36 -54 36 -13 0 -35 -11 -48 -25z"/>
<path d="M700 190 c-26 -26 -26 -81 -2 -103 29 -26 77 -22 101 9 30 38 27 44
-24 44 -54 0 -60 -18 -7 -22 l37 -3 -27 -18 c-53 -36 -108 15 -74 69 18 26 38
29 91 10 17 -7 17 -5 -4 13 -29 26 -65 27 -91 1z"/>
<path d="M860 140 l0 -70 35 0 c19 0 35 5 35 10 0 6 -13 10 -30 10 -23 0 -30
4 -30 20 0 16 7 20 30 20 17 0 30 5 30 10 0 6 -13 10 -30 10 -23 0 -30 4 -30
20 0 16 7 20 30 20 17 0 30 5 30 10 0 6 -16 10 -35 10 l-35 0 0 -70z"/>
<path d="M980 141 c0 -46 4 -71 11 -71 8 0 9 17 4 55 -3 30 -4 55 -2 55 3 0
20 -25 38 -55 18 -30 37 -55 41 -55 4 0 8 24 8 54 0 30 3 61 6 70 3 9 1 16 -5
16 -7 0 -11 -22 -11 -57 l-1 -58 -35 55 c-19 30 -39 57 -44 58 -6 2 -10 -26
-10 -67z"/>
<path d="M1130 140 l0 -70 38 0 c47 0 72 24 72 68 0 43 -31 72 -75 72 l-35 0
0 -70z m86 25 c24 -37 6 -75 -36 -75 -29 0 -30 1 -30 50 0 47 2 50 25 50 15 0
31 -10 41 -25z"/>
<path d="M1300 188 c-41 -44 -15 -118 43 -118 38 0 50 7 66 37 17 33 14 51
-14 78 -30 31 -68 32 -95 3z m89 -12 c20 -24 9 -69 -21 -85 -24 -14 -28 -14
-47 3 -23 21 -28 65 -9 84 17 17 63 15 77 -2z"/>
<path d="M1460 140 c0 -38 4 -70 9 -70 5 0 7 27 5 61 l-4 60 27 -3 c34 -4 45
-37 15 -45 -20 -5 -20 -6 -5 -39 9 -19 23 -34 30 -34 10 0 10 5 -3 25 -15 22
-15 26 0 40 9 9 16 22 16 29 0 21 -35 46 -63 46 -27 0 -27 -1 -27 -70z"/>
<path d="M1590 140 c0 -40 4 -70 10 -70 6 0 10 14 10 30 0 25 4 30 25 30 14 0
25 5 25 10 0 6 -11 10 -25 10 -18 0 -25 5 -25 20 0 15 7 20 25 20 14 0 25 5
25 10 0 6 -16 10 -35 10 l-35 0 0 -70z"/>
</g>
</svg>
